<svg width="175" height="76" viewBox="0 0 175 76" fill="none" xmlns="http://www.w3.org/2000/svg">
<g filter="url(#filter0_f_121_4)">
<path d="M156.611 2.58752H18.8861C9.88464 2.58752 2.58752 7.99129 2.58752 14.6572V61.633C2.58752 68.2989 9.88464 73.7027 18.8861 73.7027H156.611C165.613 73.7027 172.91 68.2989 172.91 61.633V14.6572C172.91 7.99129 165.613 2.58752 156.611 2.58752Z" fill="#FFCCAA"/>
</g>
<path d="M155.024 1H17.2986C8.29712 1 1 6.40377 1 13.0697V60.0455C1 66.7114 8.29712 72.1151 17.2986 72.1151H155.024C164.025 72.1151 171.322 66.7114 171.322 60.0455V13.0697C171.322 6.40377 164.025 1 155.024 1Z" fill="url(#paint0_linear_121_4)"/>
<path d="M35.2559 50.158C34.7592 50.158 34.2851 50.0715 33.8335 49.8984C33.382 49.7178 32.9831 49.4657 32.6369 49.142C32.2907 48.8109 32.016 48.4196 31.8128 47.968C31.6096 47.5089 31.508 47.0009 31.508 46.444C31.508 45.9322 31.5908 45.443 31.7564 44.9764C31.9219 44.5023 32.1665 44.0809 32.4901 43.7121C32.8138 43.3433 33.2164 43.0498 33.698 42.8315C34.1797 42.6133 34.7329 42.5042 35.3575 42.5042C35.8542 42.5042 36.3284 42.5945 36.7799 42.7751C37.2315 42.9482 37.6303 43.2003 37.9765 43.5315C38.3227 43.8551 38.5974 44.2464 38.8006 44.7055C39.0038 45.1571 39.1054 45.6613 39.1054 46.2182C39.1054 46.7225 39.0226 47.2116 38.8571 47.6858C38.6915 48.1599 38.4469 48.5814 38.1233 48.9501C37.7997 49.3189 37.397 49.6124 36.9154 49.8307C36.4337 50.0489 35.8806 50.158 35.2559 50.158ZM35.4252 49.7065C36.0047 49.7065 36.4864 49.5861 36.8702 49.3452C37.2541 49.0969 37.54 48.7545 37.7282 48.318C37.9239 47.8739 38.0217 47.3584 38.0217 46.7714C38.0217 46.2521 37.9615 45.7629 37.8411 45.3038C37.7207 44.8447 37.54 44.4421 37.2992 44.0959C37.0659 43.7422 36.7724 43.4675 36.4187 43.2718C36.065 43.0761 35.651 42.9783 35.1769 42.9783C34.6124 42.9783 34.1383 43.0987 33.7545 43.3395C33.3707 43.5804 33.0809 43.919 32.8852 44.3555C32.6896 44.7845 32.5917 45.2925 32.5917 45.8796C32.5917 46.4064 32.6482 46.8993 32.7611 47.3584C32.8815 47.8175 33.0583 48.2239 33.2916 48.5776C33.5325 48.9313 33.8298 49.2098 34.1835 49.413C34.5372 49.6087 34.9511 49.7065 35.4252 49.7065ZM40.2083 50.0564C40.1105 50.0564 40.0314 50.0452 39.9712 50.0226C39.911 50.0075 39.8809 49.9774 39.8809 49.9323C39.8809 49.842 40.0051 49.7742 40.2535 49.7291C40.5394 49.6764 40.7464 49.5898 40.8743 49.4694C41.0098 49.349 41.0775 49.1496 41.0775 48.8711V44.1072C41.0775 43.7685 41.0324 43.5089 40.9421 43.3283C40.8593 43.1476 40.6749 43.031 40.3889 42.9783C40.261 42.9557 40.1669 42.9256 40.1067 42.888C40.0465 42.8504 40.0164 42.8052 40.0164 42.7525C40.0164 42.7074 40.0465 42.6773 40.1067 42.6622C40.1669 42.6396 40.2459 42.6283 40.3438 42.6283C40.547 42.6283 40.6975 42.6283 40.7953 42.6283C40.9007 42.6283 40.9985 42.6321 41.0888 42.6396C41.1791 42.6396 41.2996 42.6396 41.4501 42.6396C41.6006 42.6396 41.7511 42.6359 41.9016 42.6283C42.0597 42.6133 42.2064 42.602 42.3419 42.5945C42.4774 42.5794 42.5978 42.5719 42.7031 42.5719C43.5611 42.5719 44.2497 42.7488 44.769 43.1025C45.2958 43.4562 45.5592 43.9491 45.5592 44.5813C45.5592 45.0404 45.4689 45.4656 45.2883 45.857C45.1077 46.2408 44.8292 46.5494 44.4529 46.7827C44.0842 47.016 43.61 47.1326 43.0305 47.1326C42.865 47.1326 42.737 47.11 42.6467 47.0649C42.5639 47.0122 42.5225 46.9633 42.5225 46.9181C42.5225 46.888 42.5413 46.8542 42.579 46.8165C42.6241 46.7789 42.6655 46.7601 42.7031 46.7601C42.7408 46.7601 42.7972 46.7638 42.8725 46.7714C42.9553 46.7789 43.0719 46.7827 43.2224 46.7827C43.674 46.7827 44.0127 46.5945 44.2384 46.2182C44.4717 45.8419 44.5884 45.3226 44.5884 44.6603C44.5884 44.0583 44.4115 43.6142 44.0578 43.3283C43.7041 43.0347 43.2525 42.888 42.7031 42.888C42.4924 42.888 42.3193 42.9256 42.1839 43.0009C42.0484 43.0686 41.9807 43.189 41.9807 43.3621V48.7469C41.9807 49.0179 42.0371 49.2361 42.15 49.4017C42.2629 49.5673 42.4586 49.6764 42.737 49.7291C42.865 49.7516 42.959 49.778 43.0192 49.8081C43.0794 49.8382 43.1096 49.8796 43.1096 49.9323C43.1096 49.9774 43.0794 50.0075 43.0192 50.0226C42.959 50.0452 42.88 50.0564 42.7822 50.0564C42.579 50.0564 42.4209 50.0489 42.308 50.0339C42.2027 50.0188 42.1048 50.0075 42.0145 50C41.9317 49.9849 41.8189 49.9774 41.6759 49.9774C41.4877 49.9774 41.3184 49.9849 41.1679 50C41.0249 50.0075 40.8781 50.0188 40.7276 50.0339C40.5846 50.0489 40.4115 50.0564 40.2083 50.0564ZM46.3806 50.0564C46.2828 50.0564 46.2037 50.0452 46.1435 50.0226C46.0833 50.0075 46.0532 49.9774 46.0532 49.9323C46.0532 49.842 46.1774 49.7742 46.4258 49.7291C46.7117 49.6764 46.93 49.5898 47.0805 49.4694C47.231 49.349 47.3063 49.1571 47.3063 48.8937V43.7911C47.3063 43.5277 47.2498 43.3395 47.137 43.2267C47.0316 43.1138 46.8359 43.031 46.5499 42.9783C46.422 42.9557 46.3279 42.9256 46.2677 42.888C46.2075 42.8504 46.1774 42.8052 46.1774 42.7525C46.1774 42.7074 46.2075 42.6773 46.2677 42.6622C46.3279 42.6396 46.4069 42.6283 46.5048 42.6283C46.708 42.6283 46.8735 42.6321 47.0015 42.6396C47.137 42.6472 47.2649 42.6547 47.3853 42.6622C47.5133 42.6622 47.6638 42.6622 47.8369 42.6622H51.1106C51.1408 42.6622 51.1934 42.6585 51.2687 42.6509C51.3515 42.6359 51.3966 42.6283 51.4042 42.6283C51.4418 42.6283 51.4832 42.6359 51.5283 42.6509C51.581 42.666 51.6074 42.6923 51.6074 42.7299C51.6149 42.9633 51.6224 43.2116 51.6299 43.475C51.645 43.7309 51.6525 43.9567 51.6525 44.1523C51.6525 44.1825 51.6412 44.2163 51.6186 44.2539C51.5961 44.2916 51.566 44.3104 51.5283 44.3104C51.4907 44.3104 51.4568 44.2916 51.4267 44.2539C51.4042 44.2088 51.3853 44.1674 51.3703 44.1298C51.3176 43.9567 51.2649 43.7949 51.2122 43.6443C51.1671 43.4938 51.0881 43.3697 50.9752 43.2718C50.8924 43.189 50.787 43.1288 50.6591 43.0912C50.5311 43.046 50.3693 43.0235 50.1737 43.0235H48.6835C48.5104 43.0235 48.3863 43.0799 48.311 43.1928C48.2433 43.3057 48.2094 43.4825 48.2094 43.7234V48.8937C48.2094 49.1571 48.2884 49.349 48.4465 49.4694C48.6045 49.5898 48.8228 49.6764 49.1012 49.7291C49.2292 49.7516 49.3232 49.778 49.3834 49.8081C49.4437 49.8382 49.4738 49.8796 49.4738 49.9323C49.4738 49.9774 49.4437 50.0075 49.3834 50.0226C49.3232 50.0452 49.2442 50.0564 49.1464 50.0564C48.9432 50.0564 48.7738 50.0489 48.6384 50.0339C48.5104 50.0263 48.3863 50.0188 48.2658 50.0113C48.1454 50.0038 47.9987 50 47.8256 50C47.6374 50 47.4719 50.0038 47.3289 50.0113C47.1934 50.0188 47.0504 50.0263 46.8999 50.0339C46.7569 50.0489 46.5838 50.0564 46.3806 50.0564ZM51.0163 50.0564C50.9184 50.0564 50.8394 50.0414 50.7792 50.0113C50.719 49.9887 50.6889 49.9548 50.6889 49.9097C50.6889 49.857 50.719 49.8119 50.7792 49.7742C50.8469 49.7291 50.941 49.6877 51.0614 49.65C51.2571 49.5898 51.4377 49.4995 51.6033 49.3791C51.7689 49.2587 51.9119 49.0593 52.0323 48.7808C52.243 48.2991 52.4349 47.8476 52.608 47.4261C52.7886 47.0047 52.958 46.5908 53.116 46.1844C53.2741 45.778 53.4359 45.3565 53.6014 44.92C53.7745 44.476 53.9552 43.9943 54.1433 43.475C54.1809 43.3697 54.2148 43.2643 54.2449 43.1589C54.275 43.0536 54.2938 42.9407 54.3013 42.8203C54.3691 42.7977 54.4368 42.7751 54.5045 42.7525C54.5723 42.7299 54.64 42.6961 54.7077 42.6509C54.7755 42.6058 54.8206 42.538 54.8432 42.4477C54.8733 42.3574 54.8997 42.2972 54.9222 42.2671C54.9298 42.2596 54.9373 42.2558 54.9448 42.2558C54.9599 42.2558 54.9712 42.2633 54.9787 42.2784C54.9937 42.3085 55.005 42.3461 55.0125 42.3913C55.0276 42.4364 55.0427 42.4816 55.0577 42.5267C55.2383 43.0987 55.4265 43.682 55.6221 44.2765C55.8178 44.8711 56.006 45.4468 56.1866 46.0037C56.3747 46.5531 56.5441 47.0498 56.6946 47.4939C56.8526 47.9304 56.9768 48.2841 57.0671 48.555C57.1725 48.8561 57.2854 49.0818 57.4058 49.2324C57.5262 49.3829 57.6504 49.4882 57.7783 49.5484C57.9138 49.6087 58.0568 49.6538 58.2073 49.6839C58.3352 49.7065 58.4293 49.7441 58.4895 49.7968C58.5497 49.842 58.5798 49.8909 58.5798 49.9436C58.5798 49.9887 58.5497 50.0188 58.4895 50.0339C58.4293 50.0489 58.3503 50.0564 58.2525 50.0564C58.1471 50.0564 58.0041 50.0489 57.8235 50.0339C57.6429 50.0263 57.451 50.0151 57.2478 50C57.0446 49.9925 56.8564 49.9887 56.6833 49.9887C56.5403 49.9887 56.3936 49.9887 56.243 49.9887C56.0925 49.9887 55.9533 49.9925 55.8253 50C55.6974 50 55.5883 50 55.498 50C55.4001 50 55.3211 49.9887 55.2609 49.9661C55.2007 49.9436 55.1706 49.9097 55.1706 49.8645C55.1706 49.8119 55.2082 49.7667 55.2835 49.7291C55.3587 49.6914 55.4453 49.6651 55.5431 49.65C55.7915 49.6124 55.9683 49.5484 56.0737 49.4581C56.1791 49.3678 56.2317 49.2625 56.2317 49.142C56.2317 49.0292 56.2054 48.8673 56.1527 48.6566C56.1076 48.4384 56.0511 48.2088 55.9834 47.968C55.9157 47.7196 55.8517 47.5014 55.7915 47.3132C55.7764 47.253 55.7463 47.2192 55.7012 47.2116C55.6635 47.1966 55.592 47.1891 55.4867 47.1891H53.3531C53.323 47.1891 53.2891 47.2041 53.2515 47.2342C53.2214 47.2568 53.1913 47.3095 53.1612 47.3923C53.1386 47.4675 53.101 47.5879 53.0483 47.7535C52.9956 47.9116 52.9429 48.0809 52.8902 48.2615C52.8376 48.4421 52.7924 48.6039 52.7548 48.7469C52.7171 48.8899 52.6983 48.9802 52.6983 49.0179C52.6983 49.1834 52.7623 49.3227 52.8902 49.4356C53.0182 49.5409 53.1725 49.6162 53.3531 49.6613C53.6014 49.7291 53.7256 49.8043 53.7256 49.8871C53.7256 49.9323 53.6955 49.9661 53.6353 49.9887C53.5751 50.0038 53.4961 50.0113 53.3982 50.0113C53.3004 50.0113 53.1574 50.0075 52.9693 50C52.7811 49.9925 52.5817 49.9887 52.3709 49.9887C52.1226 49.9887 51.8818 50 51.6485 50.0226C51.4152 50.0452 51.2044 50.0564 51.0163 50.0564ZM53.6579 46.8165H55.4077C55.513 46.8165 55.5657 46.7977 55.5657 46.7601C55.5657 46.745 55.5619 46.73 55.5544 46.7149C55.5544 46.6924 55.5507 46.6698 55.5431 46.6472L54.6626 43.8927C54.6174 43.7572 54.5836 43.6895 54.561 43.6895C54.5459 43.6895 54.5158 43.7535 54.4707 43.8814L53.4434 46.6472C53.4283 46.6924 53.4208 46.7225 53.4208 46.7375C53.4208 46.7751 53.4396 46.7977 53.4773 46.8052C53.5224 46.8128 53.5826 46.8165 53.6579 46.8165ZM59.2728 50.0564C59.1749 50.0564 59.0959 50.0414 59.0357 50.0113C58.9755 49.9887 58.9454 49.9548 58.9454 49.9097C58.9454 49.8344 59.0658 49.7742 59.3067 49.7291C59.5926 49.6764 59.777 49.5898 59.8598 49.4694C59.9501 49.349 59.9953 49.1533 59.9953 48.8824V43.7798C59.9953 43.5164 59.9652 43.332 59.905 43.2267C59.8523 43.1138 59.6829 43.031 59.397 42.9783C59.1486 42.9331 59.0244 42.8654 59.0244 42.7751C59.0244 42.7299 59.0508 42.6961 59.1035 42.6735C59.1561 42.6434 59.2389 42.6283 59.3518 42.6283C59.555 42.6283 59.7131 42.6321 59.8259 42.6396C59.9388 42.6472 60.0442 42.6547 60.142 42.6622C60.2399 42.6622 60.364 42.6622 60.5146 42.6622C60.6726 42.6622 60.8005 42.6622 60.8984 42.6622C61.0037 42.6547 61.1129 42.6472 61.2258 42.6396C61.3462 42.6321 61.508 42.6283 61.7112 42.6283C61.9294 42.6283 62.0386 42.6773 62.0386 42.7751C62.0386 42.8278 62.0085 42.8692 61.9483 42.8993C61.888 42.9294 61.794 42.9557 61.666 42.9783C61.3876 43.031 61.1881 43.1251 61.0677 43.2605C60.9548 43.3885 60.8984 43.5616 60.8984 43.7798V46.0037C60.8984 46.0489 60.9172 46.079 60.9548 46.094C60.9925 46.1016 61.0263 46.1053 61.0564 46.1053H65.2446C65.2973 46.1053 65.3236 46.0602 65.3236 45.9699V43.7685C65.3236 43.5653 65.271 43.396 65.1656 43.2605C65.0602 43.1251 64.8646 43.031 64.5786 42.9783C64.4506 42.9557 64.3566 42.9294 64.2963 42.8993C64.2361 42.8692 64.206 42.8278 64.206 42.7751C64.206 42.6773 64.3152 42.6283 64.5334 42.6283C64.7366 42.6283 64.9022 42.6321 65.0301 42.6396C65.1656 42.6472 65.2935 42.6547 65.4139 42.6622C65.5344 42.6622 65.6774 42.6622 65.8429 42.6622C65.9784 42.6622 66.0838 42.6622 66.159 42.6622C66.2343 42.6547 66.3208 42.6472 66.4187 42.6396C66.5165 42.6321 66.667 42.6283 66.8702 42.6283C66.9756 42.6283 67.0546 42.6434 67.1073 42.6735C67.1675 42.6961 67.1976 42.7299 67.1976 42.7751C67.1976 42.8654 67.0734 42.9331 66.8251 42.9783C66.5466 43.031 66.3773 43.1213 66.3171 43.2492C66.2569 43.3772 66.2267 43.5503 66.2267 43.7685V48.8711C66.2267 49.1496 66.2606 49.349 66.3283 49.4694C66.4036 49.5898 66.5805 49.6764 66.8589 49.7291C67.0998 49.7742 67.2202 49.8344 67.2202 49.9097C67.2202 49.9548 67.1901 49.9887 67.1299 50.0113C67.0697 50.0414 66.9906 50.0564 66.8928 50.0564C66.6896 50.0564 66.5315 50.0489 66.4187 50.0339C66.3058 50.0263 66.2004 50.0188 66.1026 50.0113C66.0047 50.0038 65.8768 50 65.7187 50C65.5607 50 65.429 50.0038 65.3236 50.0113C65.2258 50.0188 65.1167 50.0263 64.9963 50.0339C64.8758 50.0489 64.714 50.0564 64.5108 50.0564C64.413 50.0564 64.334 50.0414 64.2738 50.0113C64.2136 49.9887 64.1835 49.9548 64.1835 49.9097C64.1835 49.857 64.2098 49.8194 64.2625 49.7968C64.3227 49.7742 64.4168 49.7516 64.5447 49.7291C64.7855 49.6839 64.9737 49.5974 65.1091 49.4694C65.2521 49.334 65.3236 49.1458 65.3236 48.905V46.7036C65.3236 46.666 65.3236 46.6284 65.3236 46.5908C65.3236 46.5531 65.3048 46.5343 65.2672 46.5343H60.9548C60.9172 46.5343 60.8984 46.5757 60.8984 46.6585V48.8034C60.8984 49.0367 60.9849 49.2399 61.158 49.413C61.3311 49.5785 61.5456 49.6839 61.8015 49.7291C61.9294 49.7516 62.0198 49.7742 62.0724 49.7968C62.1326 49.8194 62.1627 49.857 62.1627 49.9097C62.1627 49.9548 62.1326 49.9887 62.0724 50.0113C62.0122 50.0414 61.9332 50.0564 61.8354 50.0564C61.6322 50.0564 61.4628 50.0489 61.3274 50.0339C61.1994 50.0263 61.0752 50.0188 60.9548 50.0113C60.8344 50.0038 60.6877 50 60.5146 50C60.3565 50 60.2211 50.0038 60.1082 50.0113C60.0028 50.0188 59.8861 50.0263 59.7582 50.0339C59.6378 50.0489 59.476 50.0564 59.2728 50.0564ZM68.2087 50.0564C68.1109 50.0564 68.0319 50.0452 67.9717 50.0226C67.9115 50.0075 67.8814 49.9774 67.8814 49.9323C67.8814 49.842 68.0055 49.7742 68.2539 49.7291C68.5399 49.6764 68.7581 49.5898 68.9087 49.4694C69.0592 49.349 69.1344 49.1571 69.1344 48.8937V43.7911C69.1344 43.5277 69.078 43.3395 68.9651 43.2267C68.8597 43.1138 68.6641 43.031 68.3781 42.9783C68.1297 42.9331 68.0055 42.8579 68.0055 42.7525C68.0055 42.7074 68.0356 42.6773 68.0959 42.6622C68.1561 42.6396 68.2351 42.6283 68.3329 42.6283C68.5361 42.6283 68.7017 42.6321 68.8296 42.6396C68.9651 42.6472 69.093 42.6547 69.2135 42.6622C69.3339 42.6622 69.4806 42.6622 69.6537 42.6622C69.8193 42.6622 69.9548 42.6622 70.0601 42.6622C70.1655 42.6547 70.2784 42.6472 70.3988 42.6396C70.5192 42.6321 70.681 42.6283 70.8842 42.6283C70.9821 42.6283 71.0611 42.6396 71.1213 42.6622C71.1815 42.6773 71.2116 42.7074 71.2116 42.7525C71.2116 42.8052 71.1815 42.8504 71.1213 42.888C71.0611 42.9256 70.967 42.9557 70.8391 42.9783C70.5606 43.031 70.3574 43.1138 70.2295 43.2267C70.1015 43.3395 70.0375 43.5277 70.0375 43.7911V48.8937C70.0375 49.1571 70.1166 49.349 70.2746 49.4694C70.4327 49.5898 70.6509 49.6764 70.9294 49.7291C71.0573 49.7516 71.1514 49.778 71.2116 49.8081C71.2718 49.8382 71.3019 49.8796 71.3019 49.9323C71.3019 49.9774 71.2718 50.0075 71.2116 50.0226C71.1514 50.0452 71.0724 50.0564 70.9745 50.0564C70.7713 50.0564 70.602 50.0489 70.4665 50.0339C70.3386 50.0263 70.2144 50.0188 70.094 50.0113C69.9736 50.0038 69.8268 50 69.6537 50C69.4656 50 69.3 50.0038 69.157 50.0113C69.0215 50.0188 68.8786 50.0263 68.728 50.0339C68.585 50.0489 68.4119 50.0564 68.2087 50.0564ZM73.7724 50.158C73.4714 50.158 73.2117 50.1242 72.9935 50.0564C72.7827 49.9887 72.5871 49.9135 72.4064 49.8307C72.3312 49.793 72.2522 49.7404 72.1694 49.6726C72.0866 49.5974 72.0377 49.5108 72.0226 49.413C72 49.2549 71.9737 49.0668 71.9436 48.8485C71.9135 48.6228 71.8984 48.4083 71.8984 48.2051C71.8984 48.1599 71.921 48.1223 71.9662 48.0922C72.0189 48.0545 72.0715 48.0357 72.1242 48.0357C72.1694 48.0357 72.2597 48.2013 72.3952 48.5324C72.5532 48.9238 72.7752 49.2361 73.0612 49.4694C73.3472 49.6952 73.6445 49.8081 73.953 49.8081C74.3519 49.8081 74.6793 49.714 74.9352 49.5259C75.191 49.3377 75.3792 49.0969 75.4996 48.8034C75.62 48.5023 75.6802 48.19 75.6802 47.8664C75.6802 47.5729 75.6313 47.2982 75.5335 47.0423C75.4432 46.7864 75.2964 46.5795 75.0932 46.4214C74.8975 46.2558 74.6454 46.1731 74.3369 46.1731C74.2842 46.1731 74.2315 46.1768 74.1788 46.1844C74.1261 46.1919 74.0697 46.1994 74.0095 46.2069C73.9493 46.2145 73.8778 46.2257 73.795 46.2408C73.7122 46.2483 73.6144 46.2521 73.5015 46.2521C73.4488 46.2521 73.3848 46.2483 73.3096 46.2408C73.2418 46.2257 73.1779 46.2032 73.1177 46.1731C73.065 46.1354 73.0386 46.0828 73.0386 46.015C73.0386 45.9172 73.0913 45.8457 73.1967 45.8005C73.3096 45.7554 73.4036 45.7328 73.4789 45.7328C73.5843 45.7328 73.667 45.7366 73.7273 45.7441C73.795 45.7441 73.8552 45.7516 73.9079 45.7667C73.9681 45.7742 74.0321 45.7817 74.0998 45.7892C74.175 45.7968 74.2729 45.8005 74.3933 45.8005C74.6115 45.8005 74.7846 45.7328 74.9126 45.5973C75.0405 45.4543 75.1308 45.2775 75.1835 45.0668C75.2437 44.8485 75.2738 44.6302 75.2738 44.412C75.2738 44.1937 75.24 43.9642 75.1722 43.7234C75.112 43.4825 74.9841 43.2793 74.7884 43.1138C74.5927 42.9407 74.2992 42.8541 73.9079 42.8541C73.6068 42.8541 73.3397 42.967 73.1064 43.1928C72.8806 43.4186 72.7 43.7873 72.5645 44.2991C72.5494 44.3819 72.5043 44.4496 72.429 44.5023C72.3538 44.555 72.3011 44.5813 72.271 44.5813C72.2409 44.5813 72.2145 44.5475 72.192 44.4797C72.1694 44.412 72.1581 44.3518 72.1581 44.2991C72.1581 44.1034 72.1694 43.9303 72.192 43.7798C72.2145 43.6218 72.2409 43.4487 72.271 43.2605C72.286 43.2003 72.3011 43.1514 72.3161 43.1138C72.3312 43.0686 72.3651 43.0423 72.4177 43.0347C72.5457 43.0046 72.6736 42.9595 72.8016 42.8993C72.9295 42.8391 73.0612 42.7789 73.1967 42.7187C73.3397 42.6585 73.4864 42.6095 73.6369 42.5719C73.7875 42.5267 73.9493 42.5042 74.1224 42.5042C74.4987 42.5042 74.8561 42.5681 75.1948 42.6961C75.5335 42.8165 75.8082 43.0046 76.0189 43.2605C76.2296 43.5164 76.335 43.8513 76.335 44.2652C76.335 44.6792 76.2372 45.0103 76.0415 45.2587C75.8458 45.4995 75.5711 45.6914 75.2174 45.8344C75.1873 45.8419 75.1722 45.8607 75.1722 45.8908C75.1722 45.9134 75.1873 45.9322 75.2174 45.9473C75.4432 46.015 75.6765 46.1129 75.9173 46.2408C76.1657 46.3612 76.3726 46.5456 76.5382 46.794C76.7038 47.0348 76.7865 47.3734 76.7865 47.81C76.7865 48.2389 76.6925 48.6039 76.5043 48.905C76.3237 49.1985 76.0829 49.4393 75.7818 49.6275C75.4883 49.8156 75.1647 49.9511 74.811 50.0339C74.4573 50.1167 74.1111 50.158 73.7724 50.158ZM77.5628 50.0564C77.465 50.0564 77.386 50.0414 77.3258 50.0113C77.2656 49.9887 77.2355 49.9548 77.2355 49.9097C77.2355 49.857 77.2656 49.8119 77.3258 49.7742C77.3935 49.7291 77.4876 49.6877 77.608 49.65C77.8037 49.5898 77.9843 49.4995 78.1499 49.3791C78.3154 49.2587 78.4584 49.0593 78.5788 48.7808C78.7896 48.2991 78.9815 47.8476 79.1546 47.4261C79.3352 47.0047 79.5045 46.5908 79.6626 46.1844C79.8206 45.778 79.9824 45.3565 80.148 44.92C80.3211 44.476 80.5017 43.9943 80.6899 43.475C80.7275 43.3697 80.7614 43.2643 80.7915 43.1589C80.8216 43.0536 80.8404 42.9407 80.8479 42.8203C80.9156 42.7977 80.9834 42.7751 81.0511 42.7525C81.1188 42.7299 81.1866 42.6961 81.2543 42.6509C81.322 42.6058 81.3672 42.538 81.3898 42.4477C81.4199 42.3574 81.4462 42.2972 81.4688 42.2671C81.4763 42.2596 81.4838 42.2558 81.4914 42.2558C81.5064 42.2558 81.5177 42.2633 81.5252 42.2784C81.5403 42.3085 81.5516 42.3461 81.5591 42.3913C81.5742 42.4364 81.5892 42.4816 81.6043 42.5267C81.7849 43.0987 81.973 43.682 82.1687 44.2765C82.3644 44.8711 82.5525 45.4468 82.7332 46.0037C82.9213 46.5531 83.0906 47.0498 83.2412 47.4939C83.3992 47.9304 83.5234 48.2841 83.6137 48.555C83.719 48.8561 83.8319 49.0818 83.9524 49.2324C84.0728 49.3829 84.1969 49.4882 84.3249 49.5484C84.4604 49.6087 84.6033 49.6538 84.7539 49.6839C84.8818 49.7065 84.9759 49.7441 85.0361 49.7968C85.0963 49.842 85.1264 49.8909 85.1264 49.9436C85.1264 49.9887 85.0963 50.0188 85.0361 50.0339C84.9759 50.0489 84.8969 50.0564 84.799 50.0564C84.6937 50.0564 84.5507 50.0489 84.37 50.0339C84.1894 50.0263 83.9975 50.0151 83.7943 50C83.5911 49.9925 83.403 49.9887 83.2299 49.9887C83.0869 49.9887 82.9401 49.9887 82.7896 49.9887C82.6391 49.9887 82.4998 49.9925 82.3719 50C82.244 50 82.1348 50 82.0445 50C81.9467 50 81.8677 49.9887 81.8075 49.9661C81.7473 49.9436 81.7171 49.9097 81.7171 49.8645C81.7171 49.8119 81.7548 49.7667 81.83 49.7291C81.9053 49.6914 81.9918 49.6651 82.0897 49.65C82.338 49.6124 82.5149 49.5484 82.6203 49.4581C82.7256 49.3678 82.7783 49.2625 82.7783 49.142C82.7783 49.0292 82.752 48.8673 82.6993 48.6566C82.6541 48.4384 82.5977 48.2088 82.53 47.968C82.4622 47.7196 82.3982 47.5014 82.338 47.3132C82.323 47.253 82.2929 47.2192 82.2477 47.2116C82.2101 47.1966 82.1386 47.1891 82.0332 47.1891H79.8996C79.8695 47.1891 79.8357 47.2041 79.798 47.2342C79.7679 47.2568 79.7378 47.3095 79.7077 47.3923C79.6851 47.4675 79.6475 47.5879 79.5948 47.7535C79.5422 47.9116 79.4895 48.0809 79.4368 48.2615C79.3841 48.4421 79.339 48.6039 79.3013 48.7469C79.2637 48.8899 79.2449 48.9802 79.2449 49.0179C79.2449 49.1834 79.3089 49.3227 79.4368 49.4356C79.5647 49.5409 79.719 49.6162 79.8996 49.6613C80.148 49.7291 80.2722 49.8043 80.2722 49.8871C80.2722 49.9323 80.2421 49.9661 80.1819 49.9887C80.1217 50.0038 80.0426 50.0113 79.9448 50.0113C79.847 50.0113 79.704 50.0075 79.5158 50C79.3277 49.9925 79.1282 49.9887 78.9175 49.9887C78.6691 49.9887 78.4283 50 78.195 50.0226C77.9617 50.0452 77.751 50.0564 77.5628 50.0564ZM80.2044 46.8165H81.9542C82.0596 46.8165 82.1123 46.7977 82.1123 46.7601C82.1123 46.745 82.1085 46.73 82.101 46.7149C82.101 46.6924 82.0972 46.6698 82.0897 46.6472L81.2091 43.8927C81.164 43.7572 81.1301 43.6895 81.1075 43.6895C81.0925 43.6895 81.0624 43.7535 81.0172 43.8814L79.9899 46.6472C79.9749 46.6924 79.9674 46.7225 79.9674 46.7375C79.9674 46.7751 79.9862 46.7977 80.0238 46.8052C80.069 46.8128 80.1292 46.8165 80.2044 46.8165ZM92.9878 52.3142C92.8824 52.3142 92.8147 52.2615 92.7846 52.1562C92.762 52.0508 92.7507 51.9417 92.7507 51.8288C92.7583 51.7009 92.762 51.5804 92.762 51.4676C92.762 51.3547 92.762 51.2493 92.762 51.1515C92.762 50.6849 92.7018 50.3763 92.5814 50.2258C92.461 50.0753 92.239 50 91.9153 50H87.0611C86.873 50 86.7074 50.0038 86.5644 50.0113C86.4289 50.0188 86.2859 50.0263 86.1354 50.0339C85.9924 50.0489 85.8193 50.0564 85.6161 50.0564C85.5183 50.0564 85.4393 50.0452 85.3791 50.0226C85.3189 50.0075 85.2888 49.9774 85.2888 49.9323C85.2888 49.842 85.4129 49.7742 85.6613 49.7291C85.9473 49.6764 86.1655 49.5898 86.3161 49.4694C86.4666 49.349 86.5418 49.1571 86.5418 48.8937V43.7911C86.5418 43.5277 86.4854 43.3395 86.3725 43.2267C86.2671 43.1138 86.0715 43.031 85.7855 42.9783C85.5371 42.9331 85.4129 42.8579 85.4129 42.7525C85.4129 42.7074 85.443 42.6773 85.5033 42.6622C85.5635 42.6396 85.6425 42.6283 85.7403 42.6283C85.9435 42.6283 86.1091 42.6321 86.237 42.6396C86.3725 42.6472 86.5004 42.6547 86.6209 42.6622C86.7413 42.6622 86.888 42.6622 87.0611 42.6622C87.2267 42.6622 87.3622 42.6622 87.4675 42.6622C87.5729 42.6547 87.6858 42.6472 87.8062 42.6396C87.9266 42.6321 88.0884 42.6283 88.2916 42.6283C88.3894 42.6283 88.4685 42.6396 88.5287 42.6622C88.5889 42.6773 88.619 42.7074 88.619 42.7525C88.619 42.8052 88.5889 42.8504 88.5287 42.888C88.4685 42.9256 88.3744 42.9557 88.2465 42.9783C87.968 43.031 87.7648 43.1138 87.6369 43.2267C87.5089 43.3395 87.4449 43.5277 87.4449 43.7911V48.8937C87.4449 49.0668 87.5014 49.2173 87.6143 49.3452C87.7347 49.4732 87.8814 49.5372 88.0545 49.5372H90.8203C91.016 49.5372 91.174 49.4581 91.2945 49.3001C91.4149 49.1345 91.4751 48.9689 91.4751 48.8034V43.8024C91.4751 43.5315 91.4186 43.3395 91.3057 43.2267C91.2004 43.1138 91.0047 43.031 90.7187 42.9783C90.5908 42.9557 90.4967 42.9256 90.4365 42.888C90.3763 42.8504 90.3462 42.8052 90.3462 42.7525C90.3462 42.7074 90.3763 42.6773 90.4365 42.6622C90.4967 42.6396 90.5757 42.6283 90.6736 42.6283C90.8768 42.6283 91.0423 42.6321 91.1703 42.6396C91.3057 42.6472 91.4337 42.6547 91.5541 42.6622C91.6745 42.6622 91.8213 42.6622 91.9944 42.6622C92.1599 42.6622 92.2954 42.6622 92.4008 42.6622C92.5061 42.6547 92.619 42.6472 92.7394 42.6396C92.8599 42.6321 93.0217 42.6283 93.2249 42.6283C93.3227 42.6283 93.4017 42.6396 93.4619 42.6622C93.5221 42.6773 93.5522 42.7074 93.5522 42.7525C93.5522 42.8579 93.4281 42.9331 93.1797 42.9783C92.9012 43.031 92.698 43.1138 92.5701 43.2267C92.4422 43.3395 92.3782 43.5315 92.3782 43.8024V48.9614C92.3782 49.127 92.4422 49.2512 92.5701 49.334C92.698 49.4092 92.841 49.4619 92.9991 49.492C93.1647 49.5146 93.3001 49.5296 93.4055 49.5372C93.4657 49.5372 93.5071 49.556 93.5297 49.5936C93.5522 49.6312 93.5635 49.6726 93.5635 49.7178C93.5635 49.8081 93.5409 49.9624 93.4958 50.1806C93.4582 50.4064 93.4168 50.6698 93.3716 50.9708C93.3265 51.2794 93.2964 51.6105 93.2813 51.9643C93.2738 52.0546 93.2437 52.1336 93.191 52.2013C93.1458 52.2766 93.0781 52.3142 92.9878 52.3142ZM94.3915 50.0564C94.2937 50.0564 94.2146 50.0452 94.1544 50.0226C94.0942 50.0075 94.0641 49.9774 94.0641 49.9323C94.0641 49.842 94.1883 49.7742 94.4367 49.7291C94.7226 49.6764 94.9409 49.5898 95.0914 49.4694C95.2419 49.349 95.3172 49.1571 95.3172 48.8937V43.7911C95.3172 43.5277 95.2607 43.3395 95.1479 43.2267C95.0425 43.1138 94.8468 43.031 94.5608 42.9783C94.3125 42.9331 94.1883 42.8579 94.1883 42.7525C94.1883 42.7074 94.2184 42.6773 94.2786 42.6622C94.3388 42.6396 94.4178 42.6283 94.5157 42.6283C94.7189 42.6283 94.8844 42.6321 95.0124 42.6396C95.1479 42.6472 95.2758 42.6547 95.3962 42.6622C95.5166 42.6622 95.6634 42.6622 95.8365 42.6622C96.002 42.6622 96.1375 42.6622 96.2429 42.6622C96.3482 42.6547 96.4611 42.6472 96.5815 42.6396C96.702 42.6321 96.8638 42.6283 97.067 42.6283C97.1648 42.6283 97.2438 42.6396 97.304 42.6622C97.3642 42.6773 97.3943 42.7074 97.3943 42.7525C97.3943 42.8052 97.3642 42.8504 97.304 42.888C97.2438 42.9256 97.1498 42.9557 97.0218 42.9783C96.7434 43.031 96.5401 43.1138 96.4122 43.2267C96.2843 43.3395 96.2203 43.5277 96.2203 43.7911V48.8937C96.2203 49.1571 96.2993 49.349 96.4574 49.4694C96.6154 49.5898 96.8337 49.6764 97.1121 49.7291C97.2401 49.7516 97.3341 49.778 97.3943 49.8081C97.4546 49.8382 97.4847 49.8796 97.4847 49.9323C97.4847 49.9774 97.4546 50.0075 97.3943 50.0226C97.3341 50.0452 97.2551 50.0564 97.1573 50.0564C96.9541 50.0564 96.7847 50.0489 96.6493 50.0339C96.5213 50.0263 96.3972 50.0188 96.2767 50.0113C96.1563 50.0038 96.0096 50 95.8365 50C95.6483 50 95.4828 50.0038 95.3398 50.0113C95.2043 50.0188 95.0613 50.0263 94.9108 50.0339C94.7678 50.0489 94.5947 50.0564 94.3915 50.0564ZM98.3634 50.1806C98.1828 50.1806 98.0323 50.1693 97.9119 50.1468C97.799 50.1242 97.7049 50.0865 97.6296 50.0339C97.6071 50.0188 97.5883 50 97.5732 49.9774C97.5581 49.9473 97.5506 49.9172 97.5506 49.8871C97.5506 49.8495 97.5619 49.8194 97.5845 49.7968C97.6071 49.7667 97.6334 49.7516 97.6635 49.7516C97.8291 49.7516 98.0059 49.699 98.1941 49.5936C98.3898 49.4807 98.5892 49.3114 98.7924 49.0856C98.9956 48.8598 99.2026 48.5738 99.4133 48.2276C99.6391 47.8438 99.895 47.5014 100.181 47.2004C100.474 46.8918 100.772 46.7036 101.073 46.6359C101.103 46.6284 101.11 46.6171 101.095 46.602C101.088 46.587 101.05 46.5757 100.982 46.5682C100.644 46.5381 100.343 46.4252 100.079 46.2295C99.8235 46.0338 99.624 45.7968 99.481 45.5183C99.338 45.2398 99.2665 44.9652 99.2665 44.6942C99.2665 44.1749 99.3945 43.761 99.6504 43.4524C99.9062 43.1439 100.249 42.9219 100.678 42.7864C101.107 42.6509 101.577 42.5832 102.089 42.5832C102.254 42.5832 102.401 42.5907 102.529 42.6058C102.664 42.6133 102.796 42.6246 102.924 42.6396C103.052 42.6547 103.191 42.6622 103.342 42.6622C103.507 42.6622 103.643 42.6622 103.748 42.6622C103.854 42.6547 103.966 42.6472 104.087 42.6396C104.207 42.6321 104.369 42.6283 104.572 42.6283C104.67 42.6283 104.749 42.6396 104.809 42.6622C104.87 42.6773 104.9 42.7074 104.9 42.7525C104.9 42.8579 104.776 42.9331 104.527 42.9783C104.249 43.031 104.046 43.1138 103.918 43.2267C103.79 43.3395 103.726 43.5277 103.726 43.7911V48.8937C103.726 49.1571 103.805 49.349 103.963 49.4694C104.121 49.5898 104.339 49.6764 104.617 49.7291C104.866 49.7742 104.99 49.842 104.99 49.9323C104.99 49.9774 104.96 50.0075 104.9 50.0226C104.839 50.0452 104.76 50.0564 104.663 50.0564C104.459 50.0564 104.29 50.0489 104.155 50.0339C104.027 50.0263 103.903 50.0188 103.782 50.0113C103.662 50.0038 103.515 50 103.342 50C103.154 50 102.988 50.0038 102.845 50.0113C102.71 50.0188 102.567 50.0263 102.416 50.0339C102.273 50.0489 102.1 50.0564 101.897 50.0564C101.799 50.0564 101.72 50.0452 101.66 50.0226C101.6 50.0075 101.569 49.9774 101.569 49.9323C101.569 49.8796 101.6 49.8382 101.66 49.8081C101.72 49.778 101.814 49.7516 101.942 49.7291C102.13 49.6914 102.288 49.6388 102.416 49.571C102.552 49.5033 102.653 49.413 102.721 49.3001C102.789 49.1872 102.823 49.0517 102.823 48.8937V46.9859C102.823 46.7977 102.792 46.6924 102.732 46.6698C102.68 46.6472 102.559 46.6359 102.371 46.6359C102.266 46.6359 102.156 46.6698 102.044 46.7375C101.938 46.8052 101.822 46.873 101.694 46.9407C101.415 47.0837 101.156 47.3321 100.915 47.6858C100.674 48.0395 100.429 48.397 100.181 48.7582C100.015 49.0066 99.8385 49.2399 99.6504 49.4581C99.4697 49.6689 99.2741 49.842 99.0633 49.9774C98.8526 50.1129 98.6193 50.1806 98.3634 50.1806ZM101.976 46.2408C102.232 46.2408 102.435 46.2182 102.585 46.1731C102.744 46.1204 102.823 45.9962 102.823 45.8005V43.7911C102.823 43.4901 102.736 43.2718 102.563 43.1363C102.397 43.0009 102.187 42.9331 101.931 42.9331C101.637 42.9331 101.359 43.0009 101.095 43.1363C100.839 43.2718 100.632 43.4562 100.474 43.6895C100.316 43.9153 100.237 44.1787 100.237 44.4797C100.237 45.0969 100.384 45.5446 100.678 45.8231C100.979 46.1016 101.411 46.2408 101.976 46.2408ZM108.118 50.0564C108.02 50.0564 107.941 50.0452 107.881 50.0226C107.821 50.0075 107.791 49.9774 107.791 49.9323C107.791 49.842 107.915 49.7742 108.163 49.7291C108.449 49.6764 108.656 49.5898 108.784 49.4694C108.92 49.349 108.987 49.1496 108.987 48.8711V44.1072C108.987 43.7685 108.942 43.5089 108.852 43.3283C108.769 43.1476 108.585 43.031 108.299 42.9783C108.171 42.9557 108.077 42.9256 108.016 42.888C107.956 42.8504 107.926 42.8052 107.926 42.7525C107.926 42.7074 107.956 42.6773 108.016 42.6622C108.077 42.6396 108.156 42.6283 108.254 42.6283C108.457 42.6283 108.607 42.6283 108.705 42.6283C108.81 42.6283 108.908 42.6321 108.999 42.6396C109.089 42.6396 109.209 42.6396 109.36 42.6396C109.51 42.6396 109.661 42.6359 109.811 42.6283C109.969 42.6133 110.116 42.602 110.252 42.5945C110.387 42.5794 110.508 42.5719 110.613 42.5719C111.471 42.5719 112.16 42.7488 112.679 43.1025C113.206 43.4562 113.469 43.9491 113.469 44.5813C113.469 45.0404 113.379 45.4656 113.198 45.857C113.017 46.2408 112.739 46.5494 112.363 46.7827C111.994 47.016 111.52 47.1326 110.94 47.1326C110.775 47.1326 110.647 47.11 110.556 47.0649C110.474 47.0122 110.432 46.9633 110.432 46.9181C110.432 46.888 110.451 46.8542 110.489 46.8165C110.534 46.7789 110.575 46.7601 110.613 46.7601C110.651 46.7601 110.707 46.7638 110.782 46.7714C110.865 46.7789 110.982 46.7827 111.132 46.7827C111.584 46.7827 111.922 46.5945 112.148 46.2182C112.382 45.8419 112.498 45.3226 112.498 44.6603C112.498 44.0583 112.321 43.6142 111.968 43.3283C111.614 43.0347 111.162 42.888 110.613 42.888C110.402 42.888 110.229 42.9256 110.094 43.0009C109.958 43.0686 109.89 43.189 109.89 43.3621V48.7469C109.89 49.0179 109.947 49.2361 110.06 49.4017C110.173 49.5673 110.368 49.6764 110.647 49.7291C110.775 49.7516 110.869 49.778 110.929 49.8081C110.989 49.8382 111.019 49.8796 111.019 49.9323C111.019 49.9774 110.989 50.0075 110.929 50.0226C110.869 50.0452 110.79 50.0564 110.692 50.0564C110.489 50.0564 110.331 50.0489 110.218 50.0339C110.112 50.0188 110.015 50.0075 109.924 50C109.842 49.9849 109.729 49.9774 109.586 49.9774C109.398 49.9774 109.228 49.9849 109.078 50C108.935 50.0075 108.788 50.0188 108.637 50.0339C108.494 50.0489 108.321 50.0564 108.118 50.0564ZM118.004 50.158C117.508 50.158 117.034 50.0715 116.582 49.8984C116.13 49.7178 115.732 49.4657 115.385 49.142C115.039 48.8109 114.765 48.4196 114.561 47.968C114.358 47.5089 114.257 47.0009 114.257 46.444C114.257 45.9322 114.339 45.443 114.505 44.9764C114.67 44.5023 114.915 44.0809 115.239 43.7121C115.562 43.3433 115.965 43.0498 116.447 42.8315C116.928 42.6133 117.481 42.5042 118.106 42.5042C118.603 42.5042 119.077 42.5945 119.528 42.7751C119.98 42.9482 120.379 43.2003 120.725 43.5315C121.071 43.8551 121.346 44.2464 121.549 44.7055C121.752 45.1571 121.854 45.6613 121.854 46.2182C121.854 46.7225 121.771 47.2116 121.606 47.6858C121.44 48.1599 121.195 48.5814 120.872 48.9501C120.548 49.3189 120.146 49.6124 119.664 49.8307C119.182 50.0489 118.629 50.158 118.004 50.158ZM118.174 49.7065C118.753 49.7065 119.235 49.5861 119.619 49.3452C120.003 49.0969 120.289 48.7545 120.477 48.318C120.672 47.8739 120.77 47.3584 120.77 46.7714C120.77 46.2521 120.71 45.7629 120.59 45.3038C120.469 44.8447 120.289 44.4421 120.048 44.0959C119.814 43.7422 119.521 43.4675 119.167 43.2718C118.813 43.0761 118.4 42.9783 117.925 42.9783C117.361 42.9783 116.887 43.0987 116.503 43.3395C116.119 43.5804 115.829 43.919 115.634 44.3555C115.438 44.7845 115.34 45.2925 115.34 45.8796C115.34 46.4064 115.397 46.8993 115.51 47.3584C115.63 47.8175 115.807 48.2239 116.04 48.5776C116.281 48.9313 116.578 49.2098 116.932 49.413C117.286 49.6087 117.7 49.7065 118.174 49.7065ZM123.104 50.0564C123.006 50.0564 122.927 50.0452 122.867 50.0226C122.806 50.0075 122.776 49.9774 122.776 49.9323C122.776 49.842 122.9 49.7742 123.149 49.7291C123.435 49.6764 123.653 49.5898 123.803 49.4694C123.954 49.349 124.029 49.1571 124.029 48.8937V43.7911C124.029 43.5277 123.973 43.3395 123.86 43.2267C123.755 43.1138 123.559 43.031 123.273 42.9783C123.025 42.9331 122.9 42.8579 122.9 42.7525C122.9 42.7074 122.93 42.6773 122.991 42.6622C123.051 42.6396 123.13 42.6283 123.228 42.6283C123.431 42.6283 123.597 42.6321 123.724 42.6396C123.86 42.6472 123.988 42.6547 124.108 42.6622C124.229 42.6622 124.375 42.6622 124.549 42.6622H127.348C127.363 42.6622 127.431 42.6547 127.551 42.6396C127.679 42.6171 127.758 42.6058 127.788 42.6058C127.826 42.6058 127.852 42.6283 127.867 42.6735C127.89 42.7111 127.901 42.7412 127.901 42.7638C127.909 43.0046 127.924 43.2078 127.947 43.3734C127.977 43.539 127.992 43.7158 127.992 43.904C127.992 43.9793 127.973 44.0395 127.935 44.0846C127.898 44.1222 127.864 44.1411 127.834 44.1411C127.796 44.1411 127.743 44.1034 127.676 44.0282C127.615 43.9529 127.578 43.8852 127.563 43.825C127.548 43.7347 127.518 43.6293 127.472 43.5089C127.435 43.3809 127.359 43.2681 127.247 43.1702C127.141 43.0724 126.976 43.0235 126.75 43.0235H125.26C125.162 43.0235 125.083 43.0649 125.023 43.1476C124.962 43.2304 124.932 43.3207 124.932 43.4186V45.3941C124.932 45.5748 124.94 45.714 124.955 45.8118C124.97 45.9097 125.008 45.9586 125.068 45.9586C125.083 45.9586 125.094 45.9586 125.102 45.9586C125.109 45.9586 125.117 45.9548 125.124 45.9473C125.26 45.9021 125.422 45.8607 125.61 45.8231C125.805 45.778 126.046 45.7554 126.332 45.7554C127.017 45.7554 127.563 45.936 127.969 46.2972C128.375 46.651 128.579 47.1552 128.579 47.81C128.579 48.2239 128.511 48.5513 128.375 48.7921C128.248 49.0329 128.093 49.2173 127.913 49.3452C127.74 49.4732 127.585 49.5785 127.45 49.6613C127.224 49.7968 126.961 49.8946 126.66 49.9548C126.359 50.0151 126.02 50.0452 125.644 50.0452C125.568 50.0452 125.455 50.0376 125.305 50.0226C125.154 50.0075 124.989 49.9925 124.808 49.9774C124.628 49.9624 124.454 49.9548 124.289 49.9548C124.131 49.9548 124.003 49.9624 123.905 49.9774C123.807 49.9925 123.698 50.0075 123.578 50.0226C123.465 50.0452 123.307 50.0564 123.104 50.0564ZM125.802 49.5823C126.095 49.5823 126.374 49.5071 126.637 49.3565C126.908 49.206 127.13 49.0028 127.303 48.7469C127.476 48.4835 127.563 48.19 127.563 47.8664C127.563 47.5729 127.514 47.3321 127.416 47.1439C127.318 46.9482 127.205 46.7902 127.077 46.6698C126.949 46.5494 126.833 46.4628 126.727 46.4101C126.629 46.3499 126.479 46.2897 126.276 46.2295C126.08 46.1618 125.839 46.1279 125.553 46.1279C125.388 46.1279 125.241 46.158 125.113 46.2182C124.993 46.2709 124.932 46.3763 124.932 46.5343V48.7808C124.932 49.0367 125.008 49.2361 125.158 49.3791C125.309 49.5146 125.523 49.5823 125.802 49.5823ZM129.526 50.0564C129.428 50.0564 129.349 50.0452 129.289 50.0226C129.229 50.0075 129.199 49.9774 129.199 49.9323C129.199 49.842 129.323 49.7742 129.571 49.7291C129.857 49.6764 130.075 49.5898 130.226 49.4694C130.376 49.349 130.452 49.1571 130.452 48.8937V43.7911C130.452 43.5277 130.395 43.3395 130.282 43.2267C130.177 43.1138 129.981 43.031 129.695 42.9783C129.447 42.9331 129.323 42.8579 129.323 42.7525C129.323 42.7074 129.353 42.6773 129.413 42.6622C129.473 42.6396 129.552 42.6283 129.65 42.6283C129.853 42.6283 130.019 42.6321 130.147 42.6396C130.282 42.6472 130.41 42.6547 130.531 42.6622C130.651 42.6622 130.798 42.6622 130.971 42.6622C131.137 42.6622 131.272 42.6622 131.377 42.6622C131.483 42.6547 131.596 42.6472 131.716 42.6396C131.836 42.6321 131.998 42.6283 132.201 42.6283C132.299 42.6283 132.378 42.6396 132.439 42.6622C132.499 42.6773 132.529 42.7074 132.529 42.7525C132.529 42.8052 132.499 42.8504 132.439 42.888C132.378 42.9256 132.284 42.9557 132.156 42.9783C131.878 43.031 131.675 43.1138 131.547 43.2267C131.419 43.3395 131.355 43.5277 131.355 43.7911V48.8937C131.355 49.1571 131.434 49.349 131.592 49.4694C131.75 49.5898 131.968 49.6764 132.247 49.7291C132.375 49.7516 132.469 49.778 132.529 49.8081C132.589 49.8382 132.619 49.8796 132.619 49.9323C132.619 49.9774 132.589 50.0075 132.529 50.0226C132.469 50.0452 132.39 50.0564 132.292 50.0564C132.089 50.0564 131.919 50.0489 131.784 50.0339C131.656 50.0263 131.532 50.0188 131.411 50.0113C131.291 50.0038 131.144 50 130.971 50C130.783 50 130.617 50.0038 130.474 50.0113C130.339 50.0188 130.196 50.0263 130.045 50.0339C129.902 50.0489 129.729 50.0564 129.526 50.0564ZM135.236 50.0564C135.139 50.0564 135.06 50.0452 134.999 50.0226C134.939 50.0075 134.909 49.9774 134.909 49.9323C134.909 49.8796 134.939 49.8382 134.999 49.8081C135.06 49.778 135.154 49.7516 135.282 49.7291C135.568 49.6764 135.786 49.5861 135.936 49.4581C136.087 49.3227 136.162 49.1195 136.162 48.8485V44.4684C136.162 44.1222 136.155 43.8588 136.14 43.6782C136.124 43.4901 136.098 43.3584 136.061 43.2831C136.03 43.2078 135.985 43.1665 135.925 43.1589C135.82 43.1363 135.707 43.1251 135.586 43.1251C135.473 43.1175 135.319 43.1138 135.124 43.1138H134.593C134.412 43.1138 134.232 43.1514 134.051 43.2267C133.878 43.2944 133.75 43.4035 133.667 43.554C133.645 43.5917 133.607 43.6481 133.554 43.7234C133.502 43.7911 133.445 43.8513 133.385 43.904C133.325 43.9567 133.265 43.983 133.204 43.983C133.174 43.983 133.152 43.968 133.137 43.9379C133.129 43.9078 133.125 43.8739 133.125 43.8363C133.125 43.761 133.144 43.6857 133.182 43.6105C133.287 43.3922 133.362 43.2003 133.408 43.0347C133.46 42.8617 133.502 42.6585 133.532 42.4251C133.547 42.2972 133.573 42.2219 133.611 42.1994C133.656 42.1768 133.694 42.1655 133.724 42.1655C133.754 42.1655 133.799 42.2107 133.859 42.301C133.927 42.3913 133.976 42.4665 134.006 42.5267C134.051 42.602 134.153 42.6585 134.311 42.6961C134.476 42.7337 134.638 42.7525 134.796 42.7525H138.77C139.033 42.7525 139.248 42.7375 139.413 42.7074C139.579 42.6773 139.722 42.6359 139.842 42.5832C139.933 42.538 140.004 42.4891 140.057 42.4364C140.117 42.3838 140.192 42.3574 140.283 42.3574C140.305 42.3574 140.324 42.3875 140.339 42.4477C140.354 42.5004 140.362 42.5569 140.362 42.6171C140.362 42.6547 140.354 42.7074 140.339 42.7751C140.331 42.8428 140.324 42.8955 140.316 42.9331C140.294 43.0686 140.271 43.1665 140.249 43.2267C140.234 43.2869 140.222 43.3395 140.215 43.3847C140.207 43.4299 140.204 43.5014 140.204 43.5992V43.7347C140.204 43.8024 140.188 43.8814 140.158 43.9717C140.128 44.0545 140.083 44.0959 140.023 44.0959C139.97 44.0959 139.929 44.0545 139.899 43.9717C139.869 43.8889 139.839 43.7761 139.808 43.6331C139.778 43.475 139.688 43.3508 139.537 43.2605C139.387 43.1627 139.131 43.1138 138.77 43.1138H137.63C137.464 43.1138 137.34 43.1363 137.257 43.1815C137.174 43.2267 137.122 43.3395 137.099 43.5202C137.077 43.7008 137.065 43.9981 137.065 44.412V48.8485C137.065 49.1195 137.144 49.3227 137.302 49.4581C137.46 49.5861 137.679 49.6764 137.957 49.7291C138.085 49.7516 138.179 49.778 138.239 49.8081C138.299 49.8382 138.33 49.8796 138.33 49.9323C138.33 49.9774 138.299 50.0075 138.239 50.0226C138.179 50.0452 138.1 50.0564 138.002 50.0564C137.799 50.0564 137.63 50.0489 137.494 50.0339C137.366 50.0263 137.242 50.0188 137.122 50.0113C137.001 50.0038 136.854 50 136.681 50C136.493 50 136.328 50.0038 136.185 50.0113C136.049 50.0188 135.906 50.0263 135.756 50.0339C135.613 50.0489 135.44 50.0564 135.236 50.0564Z" fill="#FFCCAA"/>
<path d="M13.0661 29.0635C12.956 29.0635 12.8671 29.0508 12.7994 29.0254C12.7317 29.0085 12.6978 28.9746 12.6978 28.9238C12.6978 28.8222 12.8375 28.746 13.1169 28.6952C13.4386 28.6359 13.6757 28.5386 13.8281 28.4031C13.9805 28.2676 14.0567 28.0475 14.0567 27.7427V22.0277C14.0567 21.7229 13.9932 21.507 13.8662 21.38C13.7477 21.253 13.5275 21.1599 13.2058 21.1006C13.0619 21.0752 12.956 21.0413 12.8883 20.999C12.8206 20.9567 12.7867 20.9059 12.7867 20.8466C12.7867 20.7958 12.8206 20.7619 12.8883 20.745C12.956 20.7196 13.0449 20.7069 13.155 20.7069C13.4767 20.7069 13.7477 20.7111 13.9678 20.7196C14.1964 20.7281 14.4165 20.7365 14.6282 20.745C14.8483 20.745 15.1066 20.745 15.4029 20.745C15.6823 20.745 15.9744 20.745 16.2792 20.745C16.5925 20.7365 16.8803 20.7323 17.1428 20.7323C17.4307 20.7238 17.672 20.7196 17.8667 20.7196C18.0699 20.7111 18.1884 20.7069 18.2223 20.7069C18.2646 20.7069 18.3112 20.7154 18.362 20.7323C18.4128 20.7492 18.4424 20.7789 18.4509 20.8212C18.4932 21.0583 18.5356 21.2953 18.5779 21.5324C18.6202 21.761 18.6414 21.96 18.6414 22.1293C18.6414 22.2055 18.6202 22.2563 18.5779 22.2817C18.544 22.3071 18.5059 22.3198 18.4636 22.3198C18.4213 22.3198 18.3916 22.3113 18.3747 22.2944C18.3578 22.269 18.3408 22.2351 18.3239 22.1928C18.2816 22.0489 18.2392 21.9134 18.1969 21.7864C18.1546 21.6509 18.1038 21.5536 18.0445 21.4943C17.926 21.3588 17.7947 21.2699 17.6508 21.2276C17.5069 21.1768 17.3545 21.1514 17.1936 21.1514H15.5299C15.4622 21.1514 15.369 21.1895 15.2505 21.2657C15.132 21.3419 15.0727 21.4393 15.0727 21.5578V24.2502C15.0727 24.3264 15.0939 24.3941 15.1362 24.4534C15.187 24.5042 15.242 24.5296 15.3013 24.5296H16.5586C16.8041 24.5296 16.9735 24.4873 17.0666 24.4026C17.1597 24.3095 17.2359 24.1444 17.2952 23.9073C17.346 23.721 17.4222 23.6279 17.5238 23.6279C17.5577 23.6279 17.5915 23.6448 17.6254 23.6787C17.6677 23.7126 17.6889 23.7634 17.6889 23.8311C17.6889 23.865 17.6847 23.9412 17.6762 24.0597C17.6762 24.1782 17.672 24.301 17.6635 24.428C17.655 24.555 17.6508 24.6524 17.6508 24.7201C17.6508 24.8048 17.6508 24.9191 17.6508 25.063C17.6593 25.1985 17.6635 25.3297 17.6635 25.4567C17.672 25.5837 17.6762 25.6641 17.6762 25.698C17.6762 25.7573 17.6677 25.8081 17.6508 25.8504C17.6423 25.8927 17.6127 25.9139 17.5619 25.9139C17.4349 25.9139 17.3375 25.7784 17.2698 25.5075C17.219 25.3128 17.1513 25.1688 17.0666 25.0757C16.9819 24.9826 16.8549 24.936 16.6856 24.936H15.5045C15.3606 24.936 15.2505 24.9572 15.1743 24.9995C15.1066 25.0334 15.0727 25.1223 15.0727 25.2662V27.7046C15.0727 28.0263 15.1404 28.2507 15.2759 28.3777C15.4114 28.4962 15.623 28.5555 15.9109 28.5555H16.8507C17.1216 28.5555 17.346 28.5428 17.5238 28.5174C17.7101 28.4835 17.8709 28.4243 18.0064 28.3396C18.1419 28.2465 18.2604 28.1237 18.362 27.9713C18.4721 27.8189 18.5948 27.6157 18.7303 27.3617C18.7557 27.3109 18.7853 27.2686 18.8192 27.2347C18.8531 27.2008 18.8912 27.1881 18.9335 27.1966C18.9758 27.2051 19.0097 27.2262 19.0351 27.2601C19.0605 27.2855 19.0732 27.3236 19.0732 27.3744C19.0732 27.4506 19.052 27.5861 19.0097 27.7808C18.9674 27.9671 18.9123 28.1618 18.8446 28.365C18.7853 28.5682 18.7303 28.7291 18.6795 28.8476C18.6541 28.9069 18.6287 28.9577 18.6033 29C18.5864 29.0423 18.5525 29.0635 18.5017 29.0635C18.0953 29.0635 17.7185 29.0593 17.3714 29.0508C17.0243 29.0423 16.6941 29.0339 16.3808 29.0254C16.0675 29.0169 15.7585 29.0085 15.4537 29C15.1574 28.9915 14.8483 28.9873 14.5266 28.9873C14.3403 28.9873 14.1795 28.9915 14.044 29C13.9085 29.0169 13.7688 29.0296 13.6249 29.0381C13.481 29.055 13.2947 29.0635 13.0661 29.0635ZM20.3617 29.1778C20.0653 29.1778 19.841 29.1101 19.6886 28.9746C19.5362 28.8307 19.46 28.6529 19.46 28.4412C19.46 28.2719 19.4938 28.1406 19.5616 28.0475C19.6293 27.9544 19.7013 27.9078 19.7775 27.9078C19.8706 27.9417 20.0145 27.9755 20.2093 28.0094C20.404 28.0433 20.6072 28.0602 20.8189 28.0602C21.0305 28.0602 21.2253 27.9586 21.4031 27.7554C21.5893 27.5437 21.7502 27.2051 21.8857 26.7394C22.0296 26.2653 22.1397 25.6345 22.2159 24.8471C22.2921 24.0597 22.3302 23.086 22.3302 21.9261C22.3302 21.6806 22.2751 21.4985 22.1651 21.38C22.055 21.253 21.8391 21.1599 21.5174 21.1006C21.238 21.0498 21.0983 20.9651 21.0983 20.8466C21.0983 20.7958 21.1321 20.7619 21.1999 20.745C21.2676 20.7196 21.3565 20.7069 21.4666 20.7069C21.5512 20.7069 21.6571 20.7111 21.7841 20.7196C21.9111 20.7281 22.0508 20.7365 22.2032 20.745C22.364 20.7535 22.5207 20.7577 22.6731 20.7577C22.9101 20.7577 23.143 20.7577 23.3716 20.7577C23.6002 20.7577 23.8245 20.7577 24.0447 20.7577C24.2648 20.7577 24.4849 20.7577 24.7051 20.7577C24.9252 20.7577 25.1453 20.7577 25.3655 20.7577C25.5941 20.7492 25.8269 20.745 26.064 20.745C26.2502 20.745 26.4026 20.745 26.5212 20.745C26.6397 20.7365 26.7667 20.7281 26.9022 20.7196C27.0376 20.7111 27.2197 20.7069 27.4483 20.7069C27.5583 20.7069 27.6472 20.7196 27.715 20.745C27.7827 20.7619 27.8166 20.7958 27.8166 20.8466C27.8166 20.9059 27.7827 20.9567 27.715 20.999C27.6472 21.0413 27.5414 21.0752 27.3975 21.1006C27.0842 21.1599 26.8556 21.253 26.7117 21.38C26.5677 21.507 26.4958 21.7187 26.4958 22.015V27.7554C26.4958 28.0517 26.5847 28.2676 26.7625 28.4031C26.9403 28.5386 27.1858 28.6359 27.4991 28.6952C27.643 28.7206 27.7488 28.7502 27.8166 28.7841C27.8843 28.818 27.9182 28.8645 27.9182 28.9238C27.9182 28.9746 27.8843 29.0085 27.8166 29.0254C27.7488 29.0508 27.6599 29.0635 27.5499 29.0635C27.3213 29.0635 27.1308 29.055 26.9784 29.0381C26.8344 29.0296 26.6947 29.0212 26.5593 29.0127C26.4238 29.0042 26.2587 29 26.064 29C25.8523 29 25.666 29.0042 25.5052 29.0127C25.3528 29.0212 25.1919 29.0296 25.0226 29.0381C24.8617 29.055 24.667 29.0635 24.4384 29.0635C24.3283 29.0635 24.2394 29.0508 24.1717 29.0254C24.1039 29.0085 24.0701 28.9746 24.0701 28.9238C24.0701 28.8222 24.2098 28.746 24.4892 28.6952C24.8109 28.6359 25.0564 28.5301 25.2258 28.3777C25.3951 28.2168 25.4798 28.0052 25.4798 27.7427V21.9515C25.4798 21.7314 25.4501 21.5578 25.3909 21.4308C25.3401 21.3038 25.2342 21.2403 25.0734 21.2403H23.27C23.1345 21.2403 23.0371 21.2826 22.9779 21.3673C22.9271 21.452 22.9017 21.5959 22.9017 21.7991C22.9017 23.103 22.8382 24.1952 22.7112 25.0757C22.5842 25.9562 22.4191 26.6717 22.2159 27.222C22.0211 27.7639 21.8095 28.1787 21.5809 28.4666C21.3523 28.746 21.1279 28.9323 20.9078 29.0254C20.6961 29.127 20.5141 29.1778 20.3617 29.1778ZM29.2636 29.0635C29.1535 29.0635 29.0646 29.0508 28.9969 29.0254C28.9291 29.0085 28.8953 28.9746 28.8953 28.9238C28.8953 28.8222 29.035 28.746 29.3144 28.6952C29.6361 28.6359 29.8732 28.5386 30.0256 28.4031C30.178 28.2676 30.2542 28.0475 30.2542 27.7427V22.0277C30.2542 21.7229 30.1907 21.507 30.0637 21.38C29.9451 21.253 29.725 21.1599 29.4033 21.1006C29.2593 21.0752 29.1535 21.0413 29.0858 20.999C29.018 20.9567 28.9842 20.9059 28.9842 20.8466C28.9842 20.7958 29.018 20.7619 29.0858 20.745C29.1535 20.7196 29.2424 20.7069 29.3525 20.7069C29.6742 20.7069 29.9451 20.7111 30.1653 20.7196C30.3939 20.7281 30.614 20.7365 30.8257 20.745C31.0458 20.745 31.304 20.745 31.6004 20.745C31.8798 20.745 32.1719 20.745 32.4767 20.745C32.7899 20.7365 33.0778 20.7323 33.3403 20.7323C33.6281 20.7238 33.8694 20.7196 34.0642 20.7196C34.2674 20.7111 34.3859 20.7069 34.4198 20.7069C34.4621 20.7069 34.5087 20.7154 34.5595 20.7323C34.6103 20.7492 34.6399 20.7789 34.6484 20.8212C34.6907 21.0583 34.733 21.2953 34.7754 21.5324C34.8177 21.761 34.8389 21.96 34.8389 22.1293C34.8389 22.2055 34.8177 22.2563 34.7754 22.2817C34.7415 22.3071 34.7034 22.3198 34.6611 22.3198C34.6187 22.3198 34.5891 22.3113 34.5722 22.2944C34.5552 22.269 34.5383 22.2351 34.5214 22.1928C34.479 22.0489 34.4367 21.9134 34.3944 21.7864C34.352 21.6509 34.3012 21.5536 34.242 21.4943C34.1234 21.3588 33.9922 21.2699 33.8483 21.2276C33.7043 21.1768 33.5519 21.1514 33.3911 21.1514H31.7274C31.6596 21.1514 31.5665 21.1895 31.448 21.2657C31.3294 21.3419 31.2702 21.4393 31.2702 21.5578V24.2502C31.2702 24.3264 31.2913 24.3941 31.3337 24.4534C31.3845 24.5042 31.4395 24.5296 31.4988 24.5296H32.7561C33.0016 24.5296 33.1709 24.4873 33.2641 24.4026C33.3572 24.3095 33.4334 24.1444 33.4927 23.9073C33.5435 23.721 33.6197 23.6279 33.7213 23.6279C33.7551 23.6279 33.789 23.6448 33.8229 23.6787C33.8652 23.7126 33.8864 23.7634 33.8864 23.8311C33.8864 23.865 33.8821 23.9412 33.8737 24.0597C33.8737 24.1782 33.8694 24.301 33.861 24.428C33.8525 24.555 33.8483 24.6524 33.8483 24.7201C33.8483 24.8048 33.8483 24.9191 33.8483 25.063C33.8567 25.1985 33.861 25.3297 33.861 25.4567C33.8694 25.5837 33.8737 25.6641 33.8737 25.698C33.8737 25.7573 33.8652 25.8081 33.8483 25.8504C33.8398 25.8927 33.8102 25.9139 33.7594 25.9139C33.6324 25.9139 33.535 25.7784 33.4673 25.5075C33.4165 25.3128 33.3487 25.1688 33.2641 25.0757C33.1794 24.9826 33.0524 24.936 32.8831 24.936H31.702C31.558 24.936 31.448 24.9572 31.3718 24.9995C31.304 25.0334 31.2702 25.1223 31.2702 25.2662V27.7046C31.2702 28.0263 31.3379 28.2507 31.4734 28.3777C31.6088 28.4962 31.8205 28.5555 32.1084 28.5555H33.0482C33.3191 28.5555 33.5435 28.5428 33.7213 28.5174C33.9075 28.4835 34.0684 28.4243 34.2039 28.3396C34.3393 28.2465 34.4579 28.1237 34.5595 27.9713C34.6695 27.8189 34.7923 27.6157 34.9278 27.3617C34.9532 27.3109 34.9828 27.2686 35.0167 27.2347C35.0505 27.2008 35.0886 27.1881 35.131 27.1966C35.1733 27.2051 35.2072 27.2262 35.2326 27.2601C35.258 27.2855 35.2707 27.3236 35.2707 27.3744C35.2707 27.4506 35.2495 27.5861 35.2072 27.7808C35.1648 27.9671 35.1098 28.1618 35.0421 28.365C34.9828 28.5682 34.9278 28.7291 34.877 28.8476C34.8516 28.9069 34.8262 28.9577 34.8008 29C34.7838 29.0423 34.75 29.0635 34.6992 29.0635C34.2928 29.0635 33.916 29.0593 33.5689 29.0508C33.2217 29.0423 32.8915 29.0339 32.5783 29.0254C32.265 29.0169 31.956 29.0085 31.6512 29C31.3548 28.9915 31.0458 28.9873 30.7241 28.9873C30.5378 28.9873 30.3769 28.9915 30.2415 29C30.106 29.0169 29.9663 29.0296 29.8224 29.0381C29.6784 29.055 29.4922 29.0635 29.2636 29.0635ZM42.8583 29.2286C42.4689 29.2286 42.1302 29.1439 41.8423 28.9746C41.5629 28.7968 41.3216 28.4835 41.1184 28.0348L40.2167 26.0536C40.0728 25.7319 39.9035 25.4694 39.7087 25.2662C39.514 25.0545 39.332 24.9318 39.1626 24.8979C39.0356 24.8725 38.9044 24.8598 38.7689 24.8598C38.6335 24.8513 38.5065 24.8471 38.3879 24.8471C38.3287 24.8471 38.2948 24.8767 38.2863 24.936C38.2779 24.9953 38.2736 25.0461 38.2736 25.0884V27.603C38.2736 27.7808 38.3033 27.9459 38.3625 28.0983C38.4218 28.2507 38.5149 28.3777 38.6419 28.4793C38.7689 28.5809 38.9383 28.6529 39.1499 28.6952C39.2939 28.7206 39.3997 28.7502 39.4674 28.7841C39.5352 28.818 39.569 28.8645 39.569 28.9238C39.569 28.9746 39.5352 29.0085 39.4674 29.0254C39.3997 29.0508 39.3108 29.0635 39.2007 29.0635C38.9721 29.0635 38.7943 29.055 38.6673 29.0381C38.5488 29.0212 38.4387 29.0085 38.3371 29C38.244 28.9831 38.117 28.9746 37.9561 28.9746C37.7529 28.9746 37.5709 28.9831 37.41 29C37.2576 29.0085 37.101 29.0212 36.9401 29.0381C36.7793 29.055 36.5845 29.0635 36.3559 29.0635C36.2459 29.0635 36.157 29.0508 36.0892 29.0254C36.0215 29.0085 35.9876 28.9746 35.9876 28.9238C35.9876 28.8222 36.1273 28.746 36.4067 28.6952C36.7285 28.6359 36.9486 28.5386 37.0671 28.4031C37.1941 28.2592 37.2576 28.0306 37.2576 27.7173V22.0023C37.2576 21.706 37.1941 21.4985 37.0671 21.38C36.9486 21.253 36.7285 21.1599 36.4067 21.1006C36.1273 21.0498 35.9876 20.9651 35.9876 20.8466C35.9876 20.7958 36.0215 20.7619 36.0892 20.745C36.157 20.7196 36.2459 20.7069 36.3559 20.7069C36.5845 20.7069 36.7708 20.7111 36.9147 20.7196C37.0671 20.7281 37.2111 20.7365 37.3465 20.745C37.482 20.745 37.6471 20.745 37.8418 20.745C37.9942 20.745 38.1128 20.745 38.1974 20.745C38.2906 20.7365 38.3922 20.7281 38.5022 20.7196C38.6123 20.7111 38.7816 20.7069 39.0102 20.7069C39.1203 20.7069 39.2092 20.7196 39.2769 20.745C39.3447 20.7619 39.3785 20.7958 39.3785 20.8466C39.3785 20.9059 39.3447 20.9567 39.2769 20.999C39.2092 21.0413 39.1034 21.0752 38.9594 21.1006C38.6462 21.1599 38.4514 21.2657 38.3752 21.4181C38.3075 21.562 38.2736 21.7568 38.2736 22.0023V24.1994C38.2736 24.2925 38.2779 24.356 38.2863 24.3899C38.2948 24.4238 38.316 24.4407 38.3498 24.4407H38.807C39.2219 24.4407 39.5733 24.3137 39.8611 24.0597C40.1575 23.8057 40.3861 23.4755 40.5469 23.0691L41.0295 21.8118C41.1142 21.5917 41.22 21.3885 41.347 21.2022C41.4825 21.0159 41.6561 20.8678 41.8677 20.7577C42.0794 20.6392 42.3376 20.5799 42.6424 20.5799C42.9134 20.5799 43.0827 20.6434 43.1504 20.7704C43.2182 20.8889 43.252 21.0329 43.252 21.2022C43.252 21.4139 43.197 21.5663 43.0869 21.6594C42.9853 21.7525 42.8795 21.7991 42.7694 21.7991C42.6509 21.7991 42.5239 21.7695 42.3884 21.7102C42.2614 21.6425 42.1471 21.6086 42.0455 21.6086C41.9101 21.6086 41.7915 21.6467 41.6899 21.7229C41.5883 21.7906 41.4825 21.96 41.3724 22.2309L40.9406 23.2723C40.8644 23.4586 40.784 23.6279 40.6993 23.7803C40.6231 23.9242 40.5385 24.0555 40.4453 24.174C40.403 24.2333 40.3861 24.2841 40.3945 24.3264C40.403 24.3687 40.4157 24.4111 40.4326 24.4534C40.4665 24.5211 40.5004 24.61 40.5342 24.7201C40.5766 24.8217 40.657 24.9826 40.7755 25.2027L41.8042 27.0442C42.0159 27.4252 42.1979 27.73 42.3503 27.9586C42.5027 28.1787 42.6467 28.3396 42.7821 28.4412C42.9261 28.5428 43.0827 28.6105 43.252 28.6444C43.4214 28.6698 43.6288 28.6825 43.8743 28.6825C43.9167 28.6825 43.9505 28.6994 43.9759 28.7333C44.0013 28.7587 44.014 28.7926 44.014 28.8349C44.014 28.8688 44.0013 28.9026 43.9759 28.9365C43.959 28.9619 43.9378 28.9831 43.9124 29C43.8278 29.0593 43.6838 29.1101 43.4806 29.1524C43.2859 29.2032 43.0785 29.2286 42.8583 29.2286ZM46.7081 29.0635C46.598 29.0635 46.5091 29.0508 46.4414 29.0254C46.3737 29.0085 46.3398 28.9746 46.3398 28.9238C46.3398 28.8645 46.3737 28.818 46.4414 28.7841C46.5091 28.7502 46.615 28.7206 46.7589 28.6952C47.0806 28.6359 47.3262 28.5343 47.4955 28.3904C47.6648 28.238 47.7495 28.0094 47.7495 27.7046V22.777C47.7495 22.3875 47.741 22.0912 47.7241 21.888C47.7072 21.6763 47.6775 21.5282 47.6352 21.4435C47.6013 21.3588 47.5505 21.3123 47.4828 21.3038C47.3643 21.2784 47.2373 21.2657 47.1018 21.2657C46.9748 21.2572 46.8012 21.253 46.5811 21.253H45.9842C45.781 21.253 45.5778 21.2953 45.3746 21.38C45.1799 21.4562 45.0359 21.579 44.9428 21.7483C44.9174 21.7906 44.8751 21.8541 44.8158 21.9388C44.7565 22.015 44.693 22.0827 44.6253 22.142C44.5576 22.2013 44.4898 22.2309 44.4221 22.2309C44.3882 22.2309 44.3628 22.214 44.3459 22.1801C44.3374 22.1462 44.3332 22.1081 44.3332 22.0658C44.3332 21.9811 44.3544 21.8965 44.3967 21.8118C44.5152 21.5663 44.5999 21.3504 44.6507 21.1641C44.71 20.9694 44.7565 20.7408 44.7904 20.4783C44.8073 20.3344 44.837 20.2497 44.8793 20.2243C44.9301 20.1989 44.9724 20.1862 45.0063 20.1862C45.0402 20.1862 45.091 20.237 45.1587 20.3386C45.2349 20.4402 45.2899 20.5249 45.3238 20.5926C45.3746 20.6773 45.4889 20.7408 45.6667 20.7831C45.853 20.8254 46.035 20.8466 46.2128 20.8466H50.6832C50.9795 20.8466 51.2208 20.8297 51.4071 20.7958C51.5934 20.7619 51.7542 20.7154 51.8897 20.6561C51.9913 20.6053 52.0717 20.5503 52.131 20.491C52.1987 20.4317 52.2834 20.4021 52.385 20.4021C52.4104 20.4021 52.4316 20.436 52.4485 20.5037C52.4654 20.563 52.4739 20.6265 52.4739 20.6942C52.4739 20.7365 52.4654 20.7958 52.4485 20.872C52.44 20.9482 52.4316 21.0075 52.4231 21.0498C52.3977 21.2022 52.3723 21.3123 52.3469 21.38C52.33 21.4477 52.3173 21.507 52.3088 21.5578C52.3003 21.6086 52.2961 21.689 52.2961 21.7991V21.9515C52.2961 22.0277 52.2792 22.1166 52.2453 22.2182C52.2114 22.3113 52.1606 22.3579 52.0929 22.3579C52.0336 22.3579 51.9871 22.3113 51.9532 22.2182C51.9193 22.1251 51.8855 21.9981 51.8516 21.8372C51.8177 21.6594 51.7161 21.5197 51.5468 21.4181C51.3775 21.308 51.0896 21.253 50.6832 21.253H49.4005C49.2142 21.253 49.0745 21.2784 48.9814 21.3292C48.8883 21.38 48.829 21.507 48.8036 21.7102C48.7782 21.9134 48.7655 22.2478 48.7655 22.7135V27.7046C48.7655 28.0094 48.8544 28.238 49.0322 28.3904C49.21 28.5343 49.4555 28.6359 49.7688 28.6952C49.9127 28.7206 50.0186 28.7502 50.0863 28.7841C50.154 28.818 50.1879 28.8645 50.1879 28.9238C50.1879 28.9746 50.154 29.0085 50.0863 29.0254C50.0186 29.0508 49.9297 29.0635 49.8196 29.0635C49.591 29.0635 49.4005 29.055 49.2481 29.0381C49.1042 29.0296 48.9645 29.0212 48.829 29.0127C48.6935 29.0042 48.5284 29 48.3337 29C48.122 29 47.9358 29.0042 47.7749 29.0127C47.6225 29.0212 47.4616 29.0296 47.2923 29.0381C47.1314 29.055 46.9367 29.0635 46.7081 29.0635ZM53.1714 29.0635C53.0613 29.0635 52.9724 29.0508 52.9047 29.0254C52.837 29.0085 52.8031 28.9746 52.8031 28.9238C52.8031 28.8222 52.9428 28.746 53.2222 28.6952C53.5439 28.6359 53.7768 28.5386 53.9207 28.4031C54.0731 28.2676 54.1493 28.0433 54.1493 27.73V22.3706C54.1493 21.9896 54.0985 21.6975 53.9969 21.4943C53.9038 21.2911 53.6963 21.1599 53.3746 21.1006C53.2307 21.0752 53.1248 21.0413 53.0571 20.999C52.9894 20.9567 52.9555 20.9059 52.9555 20.8466C52.9555 20.7958 52.9894 20.7619 53.0571 20.745C53.1248 20.7196 53.2137 20.7069 53.3238 20.7069C53.5524 20.7069 53.7217 20.7069 53.8318 20.7069C53.9503 20.7069 54.0604 20.7111 54.162 20.7196C54.2636 20.7196 54.3991 20.7196 54.5684 20.7196C54.7377 20.7196 54.9071 20.7154 55.0764 20.7069C55.2542 20.69 55.4193 20.6773 55.5717 20.6688C55.7241 20.6519 55.8596 20.6434 55.9781 20.6434C56.9433 20.6434 57.718 20.8424 58.3022 21.2403C58.8949 21.6382 59.1912 22.1928 59.1912 22.904C59.1912 23.4205 59.0896 23.8988 58.8864 24.3391C58.6832 24.7709 58.3699 25.118 57.9466 25.3805C57.5317 25.643 56.9983 25.7742 56.3464 25.7742C56.1601 25.7742 56.0162 25.7488 55.9146 25.698C55.8215 25.6387 55.7749 25.5837 55.7749 25.5329C55.7749 25.499 55.7961 25.4609 55.8384 25.4186C55.8892 25.3763 55.9358 25.3551 55.9781 25.3551C56.0204 25.3551 56.0839 25.3593 56.1686 25.3678C56.2617 25.3763 56.393 25.3805 56.5623 25.3805C57.0703 25.3805 57.4513 25.1688 57.7053 24.7455C57.9678 24.3222 58.099 23.738 58.099 22.9929C58.099 22.3156 57.9 21.816 57.5021 21.4943C57.1042 21.1641 56.5962 20.999 55.9781 20.999C55.741 20.999 55.5463 21.0413 55.3939 21.126C55.2415 21.2022 55.1653 21.3377 55.1653 21.5324V27.5903C55.1653 27.8951 55.2288 28.1406 55.3558 28.3269C55.4828 28.5132 55.7029 28.6359 56.0162 28.6952C56.1601 28.7206 56.266 28.7502 56.3337 28.7841C56.4014 28.818 56.4353 28.8645 56.4353 28.9238C56.4353 28.9746 56.4014 29.0085 56.3337 29.0254C56.266 29.0508 56.1771 29.0635 56.067 29.0635C55.8384 29.0635 55.6606 29.055 55.5336 29.0381C55.4151 29.0212 55.305 29.0085 55.2034 29C55.1103 28.9831 54.9833 28.9746 54.8224 28.9746C54.6107 28.9746 54.4202 28.9831 54.2509 29C54.09 29.0085 53.9249 29.0212 53.7556 29.0381C53.5947 29.055 53.4 29.0635 53.1714 29.0635ZM64.2935 29.1778C63.7347 29.1778 63.2013 29.0804 62.6933 28.8857C62.1853 28.6825 61.7366 28.3989 61.3471 28.0348C60.9577 27.6623 60.6486 27.222 60.42 26.714C60.1914 26.1975 60.0771 25.626 60.0771 24.9995C60.0771 24.4238 60.1703 23.8734 60.3565 23.3485C60.5428 22.8151 60.818 22.341 61.182 21.9261C61.5461 21.5112 61.9991 21.181 62.5409 20.9355C63.0828 20.69 63.7051 20.5672 64.4078 20.5672C64.9666 20.5672 65.5 20.6688 66.008 20.872C66.516 21.0667 66.9648 21.3504 67.3542 21.7229C67.7437 22.087 68.0527 22.5272 68.2813 23.0437C68.5099 23.5517 68.6242 24.119 68.6242 24.7455C68.6242 25.3128 68.5311 25.8631 68.3448 26.3965C68.1586 26.9299 67.8834 27.404 67.5193 27.8189C67.1553 28.2338 66.7023 28.564 66.1604 28.8095C65.6186 29.055 64.9963 29.1778 64.2935 29.1778ZM64.484 28.6698C65.136 28.6698 65.6778 28.5343 66.1096 28.2634C66.5414 27.984 66.8632 27.5988 67.0748 27.1077C67.295 26.6082 67.405 26.0282 67.405 25.3678C67.405 24.7836 67.3373 24.2333 67.2018 23.7168C67.0664 23.2003 66.8632 22.7474 66.5922 22.3579C66.3298 21.96 65.9996 21.6509 65.6016 21.4308C65.2037 21.2107 64.738 21.1006 64.2046 21.1006C63.5696 21.1006 63.0362 21.2361 62.6044 21.507C62.1726 21.7779 61.8467 22.1589 61.6265 22.65C61.4064 23.1326 61.2963 23.7041 61.2963 24.3645C61.2963 24.9572 61.3598 25.5117 61.4868 26.0282C61.6223 26.5447 61.8213 27.0019 62.0837 27.3998C62.3547 27.7977 62.6891 28.111 63.087 28.3396C63.485 28.5597 63.9506 28.6698 64.484 28.6698ZM70.0301 29.0635C69.92 29.0635 69.8311 29.0508 69.7634 29.0254C69.6956 29.0085 69.6618 28.9746 69.6618 28.9238C69.6618 28.8222 69.8015 28.746 70.0809 28.6952C70.4026 28.6359 70.6481 28.5386 70.8175 28.4031C70.9868 28.2676 71.0715 28.0517 71.0715 27.7554V22.015C71.0715 21.7187 71.008 21.507 70.881 21.38C70.7624 21.253 70.5423 21.1599 70.2206 21.1006C69.9412 21.0498 69.8015 20.9651 69.8015 20.8466C69.8015 20.7958 69.8353 20.7619 69.9031 20.745C69.9708 20.7196 70.0597 20.7069 70.1698 20.7069C70.3984 20.7069 70.5762 20.7111 70.7032 20.7196C70.8386 20.7281 70.9656 20.7365 71.0842 20.745C71.2027 20.7535 71.3466 20.7577 71.516 20.7577C72.1171 20.7577 72.6336 20.7619 73.0654 20.7704C73.5056 20.7704 73.9586 20.7704 74.4243 20.7704C74.8899 20.7704 75.3429 20.7662 75.7832 20.7577C76.2319 20.7492 76.7526 20.745 77.3453 20.745C77.5315 20.745 77.6839 20.745 77.8025 20.745C77.921 20.7365 78.048 20.7281 78.1835 20.7196C78.3189 20.7111 78.501 20.7069 78.7296 20.7069C78.8396 20.7069 78.9285 20.7196 78.9963 20.745C79.064 20.7619 79.0979 20.7958 79.0979 20.8466C79.0979 20.9651 78.9582 21.0498 78.6788 21.1006C78.3655 21.1599 78.1369 21.253 77.993 21.38C77.849 21.507 77.7771 21.7187 77.7771 22.015V27.7554C77.7771 28.0517 77.866 28.2676 78.0438 28.4031C78.2216 28.5386 78.4671 28.6359 78.7804 28.6952C79.0598 28.746 79.1995 28.8222 79.1995 28.9238C79.1995 28.9746 79.1656 29.0085 79.0979 29.0254C79.0301 29.0508 78.9412 29.0635 78.8312 29.0635C78.6026 29.0635 78.4121 29.055 78.2597 29.0381C78.1157 29.0296 77.976 29.0212 77.8406 29.0127C77.7051 29.0042 77.54 29 77.3453 29C77.1336 29 76.9473 29.0042 76.7865 29.0127C76.6341 29.0212 76.4732 29.0296 76.3039 29.0381C76.143 29.055 75.9483 29.0635 75.7197 29.0635C75.6096 29.0635 75.5207 29.0508 75.453 29.0254C75.3852 29.0085 75.3514 28.9746 75.3514 28.9238C75.3514 28.8645 75.3852 28.818 75.453 28.7841C75.5207 28.7502 75.6265 28.7206 75.7705 28.6952C76.0922 28.6359 76.3335 28.5301 76.4944 28.3777C76.6552 28.2168 76.7399 28.0052 76.7484 27.7427C76.7738 26.6844 76.778 25.6218 76.7611 24.555C76.7526 23.4882 76.7484 22.4256 76.7484 21.3673C76.7484 21.325 76.7357 21.2996 76.7103 21.2911C76.6933 21.2826 76.6722 21.2784 76.6468 21.2784C76.2996 21.2784 75.9906 21.2784 75.7197 21.2784C75.4572 21.2699 75.2074 21.2615 74.9704 21.253C74.7333 21.2445 74.4751 21.2403 74.1957 21.2403C73.8655 21.2403 73.548 21.2445 73.2432 21.253C72.9384 21.253 72.5743 21.2615 72.151 21.2784C72.1086 21.2784 72.0875 21.325 72.0875 21.4181C72.0536 22.468 72.0367 23.5221 72.0367 24.5804C72.0367 25.6303 72.0536 26.6844 72.0875 27.7427C72.0959 28.0052 72.1848 28.2168 72.3542 28.3777C72.532 28.5301 72.7775 28.6359 73.0908 28.6952C73.2347 28.7206 73.3405 28.7502 73.4083 28.7841C73.476 28.818 73.5099 28.8645 73.5099 28.9238C73.5099 28.9746 73.476 29.0085 73.4083 29.0254C73.3405 29.0508 73.2516 29.0635 73.1416 29.0635C72.913 29.0635 72.7225 29.055 72.5701 29.0381C72.4261 29.0296 72.2864 29.0212 72.151 29.0127C72.0155 29.0042 71.8504 29 71.6557 29C71.444 29 71.2577 29.0042 71.0969 29.0127C70.9445 29.0212 70.7836 29.0296 70.6143 29.0381C70.4534 29.055 70.2587 29.0635 70.0301 29.0635ZM84.497 29.1778C83.9382 29.1778 83.4048 29.0804 82.8968 28.8857C82.3888 28.6825 81.94 28.3989 81.5506 28.0348C81.1611 27.6623 80.8521 27.222 80.6235 26.714C80.3949 26.1975 80.2806 25.626 80.2806 24.9995C80.2806 24.4238 80.3737 23.8734 80.56 23.3485C80.7462 22.8151 81.0214 22.341 81.3855 21.9261C81.7495 21.5112 82.2025 21.181 82.7444 20.9355C83.2862 20.69 83.9085 20.5672 84.6113 20.5672C85.1701 20.5672 85.7035 20.6688 86.2115 20.872C86.7195 21.0667 87.1682 21.3504 87.5577 21.7229C87.9471 22.087 88.2562 22.5272 88.4848 23.0437C88.7134 23.5517 88.8277 24.119 88.8277 24.7455C88.8277 25.3128 88.7345 25.8631 88.5483 26.3965C88.362 26.9299 88.0868 27.404 87.7228 27.8189C87.3587 28.2338 86.9057 28.564 86.3639 28.8095C85.822 29.055 85.1997 29.1778 84.497 29.1778ZM84.6875 28.6698C85.3394 28.6698 85.8813 28.5343 86.3131 28.2634C86.7449 27.984 87.0666 27.5988 87.2783 27.1077C87.4984 26.6082 87.6085 26.0282 87.6085 25.3678C87.6085 24.7836 87.5407 24.2333 87.4053 23.7168C87.2698 23.2003 87.0666 22.7474 86.7957 22.3579C86.5332 21.96 86.203 21.6509 85.8051 21.4308C85.4071 21.2107 84.9415 21.1006 84.4081 21.1006C83.7731 21.1006 83.2397 21.2361 82.8079 21.507C82.3761 21.7779 82.0501 22.1589 81.83 22.65C81.6098 23.1326 81.4998 23.7041 81.4998 24.3645C81.4998 24.9572 81.5633 25.5117 81.6903 26.0282C81.8257 26.5447 82.0247 27.0019 82.2872 27.3998C82.5581 27.7977 82.8925 28.111 83.2905 28.3396C83.6884 28.5597 84.1541 28.6698 84.6875 28.6698ZM94.5642 29.1905C93.9715 29.1905 93.4 29.0889 92.8497 28.8857C92.2994 28.6825 91.8083 28.3946 91.3765 28.0221C90.9447 27.6411 90.6018 27.1881 90.3478 26.6632C90.1023 26.1298 89.9795 25.5414 89.9795 24.8979C89.9795 24.2798 90.1107 23.7083 90.3732 23.1834C90.6357 22.6585 90.9955 22.2013 91.4527 21.8118C91.9099 21.4223 92.4306 21.1218 93.0148 20.9101C93.6075 20.69 94.2298 20.5799 94.8817 20.5799C95.2119 20.5799 95.4913 20.5926 95.7199 20.618C95.9485 20.6434 96.1686 20.6815 96.3803 20.7323C96.6004 20.7746 96.8544 20.8339 97.1423 20.9101C97.2693 20.944 97.3582 20.9948 97.409 21.0625C97.4683 21.1302 97.5021 21.2234 97.5106 21.3419C97.5275 21.5366 97.5487 21.7483 97.5741 21.9769C97.5995 22.197 97.6164 22.4722 97.6249 22.8024C97.6334 22.8617 97.6037 22.9125 97.536 22.9548C97.4767 22.9887 97.409 22.9971 97.3328 22.9802C97.2651 22.9633 97.2185 22.9082 97.1931 22.8151C97.1084 22.4934 97.0111 22.2182 96.901 21.9896C96.7909 21.7525 96.6258 21.5578 96.4057 21.4054C96.194 21.2615 95.9358 21.1556 95.631 21.0879C95.3347 21.0117 95.0129 20.9736 94.6658 20.9736C94.1747 20.9736 93.7175 21.0752 93.2942 21.2784C92.8793 21.4731 92.5195 21.7441 92.2147 22.0912C91.9184 22.4299 91.6855 22.8151 91.5162 23.2469C91.3469 23.6787 91.2622 24.1274 91.2622 24.5931C91.2622 25.1096 91.3426 25.6176 91.5035 26.1171C91.6728 26.6166 91.9099 27.0696 92.2147 27.476C92.528 27.8739 92.8963 28.1957 93.3196 28.4412C93.7514 28.6783 94.2298 28.7968 94.7547 28.7968C95.3643 28.7968 95.8681 28.6571 96.266 28.3777C96.6639 28.0983 97.0026 27.7088 97.282 27.2093C97.3413 27.0992 97.4259 27.0442 97.536 27.0442C97.6545 27.0442 97.7138 27.1119 97.7138 27.2474C97.7138 27.3151 97.6969 27.4252 97.663 27.5776C97.6291 27.7215 97.5826 27.8782 97.5233 28.0475C97.4725 28.2084 97.4217 28.3523 97.3709 28.4793C97.3116 28.5978 97.2608 28.674 97.2185 28.7079C97.1846 28.7418 97.1 28.7799 96.9645 28.8222C96.6512 28.9492 96.2745 29.0423 95.8342 29.1016C95.4024 29.1609 94.9791 29.1905 94.5642 29.1905ZM101.13 29.0635C101.02 29.0635 100.931 29.0508 100.863 29.0254C100.795 29.0085 100.761 28.9746 100.761 28.9238C100.761 28.8645 100.795 28.818 100.863 28.7841C100.931 28.7502 101.036 28.7206 101.18 28.6952C101.502 28.6359 101.748 28.5343 101.917 28.3904C102.086 28.238 102.171 28.0094 102.171 27.7046V22.777C102.171 22.3875 102.163 22.0912 102.146 21.888C102.129 21.6763 102.099 21.5282 102.057 21.4435C102.023 21.3588 101.972 21.3123 101.904 21.3038C101.786 21.2784 101.659 21.2657 101.523 21.2657C101.396 21.2572 101.223 21.253 101.003 21.253H100.406C100.202 21.253 99.9993 21.2953 99.7961 21.38C99.6014 21.4562 99.4574 21.579 99.3643 21.7483C99.3389 21.7906 99.2966 21.8541 99.2373 21.9388C99.178 22.015 99.1145 22.0827 99.0468 22.142C98.9791 22.2013 98.9113 22.2309 98.8436 22.2309C98.8097 22.2309 98.7843 22.214 98.7674 22.1801C98.7589 22.1462 98.7547 22.1081 98.7547 22.0658C98.7547 21.9811 98.7759 21.8965 98.8182 21.8118C98.9367 21.5663 99.0214 21.3504 99.0722 21.1641C99.1315 20.9694 99.178 20.7408 99.2119 20.4783C99.2288 20.3344 99.2585 20.2497 99.3008 20.2243C99.3516 20.1989 99.3939 20.1862 99.4278 20.1862C99.4617 20.1862 99.5125 20.237 99.5802 20.3386C99.6564 20.4402 99.7114 20.5249 99.7453 20.5926C99.7961 20.6773 99.9104 20.7408 100.088 20.7831C100.274 20.8254 100.456 20.8466 100.634 20.8466H105.105C105.401 20.8466 105.642 20.8297 105.829 20.7958C106.015 20.7619 106.176 20.7154 106.311 20.6561C106.413 20.6053 106.493 20.5503 106.552 20.491C106.62 20.4317 106.705 20.4021 106.806 20.4021C106.832 20.4021 106.853 20.436 106.87 20.5037C106.887 20.563 106.895 20.6265 106.895 20.6942C106.895 20.7365 106.887 20.7958 106.87 20.872C106.862 20.9482 106.853 21.0075 106.845 21.0498C106.819 21.2022 106.794 21.3123 106.768 21.38C106.751 21.4477 106.739 21.507 106.73 21.5578C106.722 21.6086 106.718 21.689 106.718 21.7991V21.9515C106.718 22.0277 106.701 22.1166 106.667 22.2182C106.633 22.3113 106.582 22.3579 106.514 22.3579C106.455 22.3579 106.409 22.3113 106.375 22.2182C106.341 22.1251 106.307 21.9981 106.273 21.8372C106.239 21.6594 106.138 21.5197 105.968 21.4181C105.799 21.308 105.511 21.253 105.105 21.253H103.822C103.636 21.253 103.496 21.2784 103.403 21.3292C103.31 21.38 103.25 21.507 103.225 21.7102C103.2 21.9134 103.187 22.2478 103.187 22.7135V27.7046C103.187 28.0094 103.276 28.238 103.454 28.3904C103.631 28.5343 103.877 28.6359 104.19 28.6952C104.334 28.7206 104.44 28.7502 104.508 28.7841C104.576 28.818 104.609 28.8645 104.609 28.9238C104.609 28.9746 104.576 29.0085 104.508 29.0254C104.44 29.0508 104.351 29.0635 104.241 29.0635C104.012 29.0635 103.822 29.055 103.67 29.0381C103.526 29.0296 103.386 29.0212 103.25 29.0127C103.115 29.0042 102.95 29 102.755 29C102.544 29 102.357 29.0042 102.196 29.0127C102.044 29.0212 101.883 29.0296 101.714 29.0381C101.553 29.055 101.358 29.0635 101.13 29.0635ZM106.184 29.0635C106.074 29.0635 105.985 29.0466 105.917 29.0127C105.849 28.9873 105.815 28.9492 105.815 28.8984C105.815 28.8391 105.849 28.7883 105.917 28.746C105.993 28.6952 106.099 28.6486 106.234 28.6063C106.455 28.5386 106.658 28.437 106.844 28.3015C107.03 28.166 107.191 27.9417 107.327 27.6284C107.564 27.0865 107.78 26.5785 107.974 26.1044C108.178 25.6303 108.368 25.1646 108.546 24.7074C108.724 24.2502 108.906 23.7761 109.092 23.285C109.287 22.7855 109.49 22.2436 109.702 21.6594C109.744 21.5409 109.782 21.4223 109.816 21.3038C109.85 21.1853 109.871 21.0583 109.879 20.9228C109.956 20.8974 110.032 20.872 110.108 20.8466C110.184 20.8212 110.26 20.7831 110.337 20.7323C110.413 20.6815 110.464 20.6053 110.489 20.5037C110.523 20.4021 110.552 20.3344 110.578 20.3005C110.586 20.292 110.595 20.2878 110.603 20.2878C110.62 20.2878 110.633 20.2963 110.641 20.3132C110.658 20.3471 110.671 20.3894 110.679 20.4402C110.696 20.491 110.713 20.5418 110.73 20.5926C110.933 21.2361 111.145 21.8922 111.365 22.5611C111.585 23.23 111.797 23.8777 112 24.5042C112.212 25.1223 112.402 25.6811 112.572 26.1806C112.75 26.6717 112.889 27.0696 112.991 27.3744C113.109 27.7131 113.236 27.9671 113.372 28.1364C113.507 28.3057 113.647 28.4243 113.791 28.492C113.943 28.5597 114.104 28.6105 114.274 28.6444C114.418 28.6698 114.523 28.7121 114.591 28.7714C114.659 28.8222 114.693 28.8772 114.693 28.9365C114.693 28.9873 114.659 29.0212 114.591 29.0381C114.523 29.055 114.434 29.0635 114.324 29.0635C114.206 29.0635 114.045 29.055 113.842 29.0381C113.639 29.0296 113.423 29.0169 113.194 29C112.965 28.9915 112.754 28.9873 112.559 28.9873C112.398 28.9873 112.233 28.9873 112.064 28.9873C111.894 28.9873 111.738 28.9915 111.594 29C111.45 29 111.327 29 111.226 29C111.116 29 111.027 28.9873 110.959 28.9619C110.891 28.9365 110.857 28.8984 110.857 28.8476C110.857 28.7883 110.9 28.7375 110.984 28.6952C111.069 28.6529 111.166 28.6232 111.276 28.6063C111.556 28.564 111.755 28.492 111.873 28.3904C111.992 28.2888 112.051 28.1703 112.051 28.0348C112.051 27.9078 112.021 27.7258 111.962 27.4887C111.911 27.2432 111.848 26.9849 111.772 26.714C111.695 26.4346 111.624 26.1891 111.556 25.9774C111.539 25.9097 111.505 25.8716 111.454 25.8631C111.412 25.8462 111.331 25.8377 111.213 25.8377H108.813C108.779 25.8377 108.741 25.8546 108.698 25.8885C108.664 25.9139 108.631 25.9732 108.597 26.0663C108.571 26.151 108.529 26.2864 108.47 26.4727C108.41 26.6505 108.351 26.841 108.292 27.0442C108.233 27.2474 108.182 27.4294 108.139 27.5903C108.097 27.7512 108.076 27.8528 108.076 27.8951C108.076 28.0814 108.148 28.238 108.292 28.365C108.436 28.4835 108.609 28.5682 108.813 28.619C109.092 28.6952 109.232 28.7799 109.232 28.873C109.232 28.9238 109.198 28.9619 109.13 28.9873C109.062 29.0042 108.973 29.0127 108.863 29.0127C108.753 29.0127 108.592 29.0085 108.381 29C108.169 28.9915 107.945 28.9873 107.708 28.9873C107.428 28.9873 107.157 29 106.895 29.0254C106.632 29.0508 106.395 29.0635 106.184 29.0635ZM109.155 25.4186H111.124C111.243 25.4186 111.302 25.3974 111.302 25.3551C111.302 25.3382 111.298 25.3212 111.289 25.3043C111.289 25.2789 111.285 25.2535 111.276 25.2281L110.286 22.1293C110.235 21.9769 110.197 21.9007 110.171 21.9007C110.155 21.9007 110.121 21.9727 110.07 22.1166L108.914 25.2281C108.897 25.2789 108.889 25.3128 108.889 25.3297C108.889 25.372 108.91 25.3974 108.952 25.4059C109.003 25.4144 109.071 25.4186 109.155 25.4186ZM118.411 29.0635C118.301 29.0635 118.212 29.0508 118.144 29.0254C118.076 29.0085 118.043 28.9746 118.043 28.9238C118.043 28.8222 118.182 28.746 118.462 28.6952C118.733 28.6444 118.944 28.547 119.097 28.4031C119.258 28.2507 119.338 28.0348 119.338 27.7554V24.936C119.338 24.8344 119.33 24.7709 119.313 24.7455C119.296 24.7116 119.279 24.7074 119.262 24.7328C119.211 24.7921 119.088 24.881 118.894 24.9995C118.699 25.118 118.445 25.2239 118.132 25.317C117.827 25.4101 117.484 25.4567 117.103 25.4567C116.307 25.4567 115.702 25.2916 115.287 24.9614C114.872 24.6312 114.664 24.0343 114.664 23.1707V21.9896C114.664 21.7017 114.631 21.4985 114.563 21.38C114.504 21.253 114.313 21.1599 113.991 21.1006C113.712 21.0498 113.572 20.9651 113.572 20.8466C113.572 20.7958 113.606 20.7619 113.674 20.745C113.742 20.7196 113.83 20.7069 113.941 20.7069C114.169 20.7069 114.347 20.7111 114.474 20.7196C114.601 20.7281 114.719 20.7365 114.83 20.745C114.94 20.745 115.079 20.745 115.249 20.745C115.426 20.745 115.57 20.745 115.68 20.745C115.799 20.7365 115.922 20.7281 116.049 20.7196C116.184 20.7111 116.366 20.7069 116.595 20.7069C116.705 20.7069 116.794 20.7196 116.862 20.745C116.929 20.7619 116.963 20.7958 116.963 20.8466C116.963 20.9059 116.929 20.9567 116.862 20.999C116.794 21.0413 116.688 21.0752 116.544 21.1006C116.231 21.1599 116.006 21.2615 115.871 21.4054C115.744 21.5493 115.68 21.7441 115.68 21.9896V23.2215C115.68 23.7634 115.82 24.1782 116.1 24.4661C116.379 24.7455 116.815 24.8852 117.408 24.8852C117.662 24.8852 117.911 24.8556 118.157 24.7963C118.411 24.7286 118.635 24.6524 118.83 24.5677C119.025 24.483 119.156 24.4111 119.224 24.3518C119.266 24.3179 119.296 24.2756 119.313 24.2248C119.33 24.174 119.338 24.1147 119.338 24.047V21.9896C119.338 21.761 119.275 21.5705 119.148 21.4181C119.029 21.2657 118.809 21.1599 118.487 21.1006C118.208 21.0498 118.068 20.9651 118.068 20.8466C118.068 20.7958 118.102 20.7619 118.17 20.745C118.237 20.7196 118.326 20.7069 118.436 20.7069C118.665 20.7069 118.851 20.7111 118.995 20.7196C119.148 20.7281 119.291 20.7365 119.427 20.745C119.562 20.745 119.727 20.745 119.922 20.745C120.075 20.745 120.193 20.745 120.278 20.745C120.362 20.7365 120.46 20.7281 120.57 20.7196C120.68 20.7111 120.849 20.7069 121.078 20.7069C121.188 20.7069 121.277 20.7196 121.345 20.745C121.412 20.7619 121.446 20.7958 121.446 20.8466C121.446 20.9059 121.412 20.9567 121.345 20.999C121.277 21.0413 121.171 21.0752 121.027 21.1006C120.714 21.1599 120.523 21.2615 120.456 21.4054C120.388 21.5493 120.354 21.7441 120.354 21.9896V27.73C120.354 28.0433 120.392 28.2676 120.468 28.4031C120.545 28.5386 120.739 28.6359 121.053 28.6952C121.196 28.7206 121.302 28.7502 121.37 28.7841C121.438 28.818 121.472 28.8645 121.472 28.9238C121.472 28.9746 121.438 29.0085 121.37 29.0254C121.302 29.0508 121.213 29.0635 121.103 29.0635C120.875 29.0635 120.693 29.055 120.557 29.0381C120.43 29.0296 120.312 29.0212 120.202 29.0127C120.092 29.0042 119.948 29 119.77 29C119.592 29 119.444 29.0042 119.325 29.0127C119.207 29.0212 119.08 29.0296 118.944 29.0381C118.817 29.055 118.64 29.0635 118.411 29.0635ZM122.319 29.0635C122.209 29.0635 122.12 29.0466 122.052 29.0127C121.985 28.9873 121.951 28.9492 121.951 28.8984C121.951 28.8391 121.985 28.7883 122.052 28.746C122.129 28.6952 122.234 28.6486 122.37 28.6063C122.59 28.5386 122.793 28.437 122.98 28.3015C123.166 28.166 123.327 27.9417 123.462 27.6284C123.699 27.0865 123.915 26.5785 124.11 26.1044C124.313 25.6303 124.504 25.1646 124.681 24.7074C124.859 24.2502 125.041 23.7761 125.227 23.285C125.422 22.7855 125.625 22.2436 125.837 21.6594C125.879 21.5409 125.917 21.4223 125.951 21.3038C125.985 21.1853 126.006 21.0583 126.015 20.9228C126.091 20.8974 126.167 20.872 126.243 20.8466C126.32 20.8212 126.396 20.7831 126.472 20.7323C126.548 20.6815 126.599 20.6053 126.624 20.5037C126.658 20.4021 126.688 20.3344 126.713 20.3005C126.722 20.292 126.73 20.2878 126.739 20.2878C126.756 20.2878 126.768 20.2963 126.777 20.3132C126.794 20.3471 126.806 20.3894 126.815 20.4402C126.832 20.491 126.849 20.5418 126.866 20.5926C127.069 21.2361 127.281 21.8922 127.501 22.5611C127.721 23.23 127.933 23.8777 128.136 24.5042C128.347 25.1223 128.538 25.6811 128.707 26.1806C128.885 26.6717 129.025 27.0696 129.126 27.3744C129.245 27.7131 129.372 27.9671 129.507 28.1364C129.643 28.3057 129.783 28.4243 129.926 28.492C130.079 28.5597 130.24 28.6105 130.409 28.6444C130.553 28.6698 130.659 28.7121 130.727 28.7714C130.794 28.8222 130.828 28.8772 130.828 28.9365C130.828 28.9873 130.794 29.0212 130.727 29.0381C130.659 29.055 130.57 29.0635 130.46 29.0635C130.341 29.0635 130.18 29.055 129.977 29.0381C129.774 29.0296 129.558 29.0169 129.33 29C129.101 28.9915 128.889 28.9873 128.695 28.9873C128.534 28.9873 128.369 28.9873 128.199 28.9873C128.03 28.9873 127.873 28.9915 127.729 29C127.585 29 127.463 29 127.361 29C127.251 29 127.162 28.9873 127.094 28.9619C127.027 28.9365 126.993 28.8984 126.993 28.8476C126.993 28.7883 127.035 28.7375 127.12 28.6952C127.204 28.6529 127.302 28.6232 127.412 28.6063C127.691 28.564 127.89 28.492 128.009 28.3904C128.127 28.2888 128.187 28.1703 128.187 28.0348C128.187 27.9078 128.157 27.7258 128.098 27.4887C128.047 27.2432 127.983 26.9849 127.907 26.714C127.831 26.4346 127.759 26.1891 127.691 25.9774C127.674 25.9097 127.64 25.8716 127.59 25.8631C127.547 25.8462 127.467 25.8377 127.348 25.8377H124.948C124.914 25.8377 124.876 25.8546 124.834 25.8885C124.8 25.9139 124.766 25.9732 124.732 26.0663C124.707 26.151 124.664 26.2864 124.605 26.4727C124.546 26.6505 124.487 26.841 124.427 27.0442C124.368 27.2474 124.317 27.4294 124.275 27.5903C124.233 27.7512 124.211 27.8528 124.211 27.8951C124.211 28.0814 124.283 28.238 124.427 28.365C124.571 28.4835 124.745 28.5682 124.948 28.619C125.227 28.6952 125.367 28.7799 125.367 28.873C125.367 28.9238 125.333 28.9619 125.266 28.9873C125.198 29.0042 125.109 29.0127 124.999 29.0127C124.889 29.0127 124.728 29.0085 124.516 29C124.305 28.9915 124.08 28.9873 123.843 28.9873C123.564 28.9873 123.293 29 123.03 29.0254C122.768 29.0508 122.531 29.0635 122.319 29.0635ZM125.291 25.4186H127.259C127.378 25.4186 127.437 25.3974 127.437 25.3551C127.437 25.3382 127.433 25.3212 127.425 25.3043C127.425 25.2789 127.42 25.2535 127.412 25.2281L126.421 22.1293C126.37 21.9769 126.332 21.9007 126.307 21.9007C126.29 21.9007 126.256 21.9727 126.205 22.1166L125.05 25.2281C125.033 25.2789 125.024 25.3128 125.024 25.3297C125.024 25.372 125.045 25.3974 125.088 25.4059C125.139 25.4144 125.206 25.4186 125.291 25.4186ZM131.608 29.0635C131.498 29.0635 131.409 29.0466 131.341 29.0127C131.273 28.9873 131.239 28.9492 131.239 28.8984C131.239 28.8137 131.375 28.746 131.646 28.6952C131.968 28.6359 132.175 28.5386 132.268 28.4031C132.37 28.2676 132.421 28.0475 132.421 27.7427V22.0023C132.421 21.706 132.387 21.4985 132.319 21.38C132.26 21.253 132.069 21.1599 131.747 21.1006C131.468 21.0498 131.328 20.9736 131.328 20.872C131.328 20.8212 131.358 20.7831 131.417 20.7577C131.476 20.7238 131.57 20.7069 131.697 20.7069C131.925 20.7069 132.103 20.7111 132.23 20.7196C132.357 20.7281 132.476 20.7365 132.586 20.745C132.696 20.745 132.835 20.745 133.005 20.745C133.183 20.745 133.326 20.745 133.437 20.745C133.555 20.7365 133.678 20.7281 133.805 20.7196C133.94 20.7111 134.122 20.7069 134.351 20.7069C134.596 20.7069 134.719 20.7619 134.719 20.872C134.719 20.9313 134.685 20.9778 134.618 21.0117C134.55 21.0456 134.444 21.0752 134.3 21.1006C133.987 21.1599 133.762 21.2657 133.627 21.4181C133.5 21.562 133.437 21.7568 133.437 22.0023V24.5042C133.437 24.555 133.458 24.5889 133.5 24.6058C133.542 24.6143 133.58 24.6185 133.614 24.6185H138.326C138.385 24.6185 138.415 24.5677 138.415 24.4661V21.9896C138.415 21.761 138.356 21.5705 138.237 21.4181C138.119 21.2657 137.898 21.1599 137.577 21.1006C137.433 21.0752 137.327 21.0456 137.259 21.0117C137.191 20.9778 137.158 20.9313 137.158 20.872C137.158 20.7619 137.28 20.7069 137.526 20.7069C137.755 20.7069 137.941 20.7111 138.085 20.7196C138.237 20.7281 138.381 20.7365 138.517 20.745C138.652 20.745 138.813 20.745 138.999 20.745C139.152 20.745 139.27 20.745 139.355 20.745C139.439 20.7365 139.537 20.7281 139.647 20.7196C139.757 20.7111 139.926 20.7069 140.155 20.7069C140.273 20.7069 140.362 20.7238 140.422 20.7577C140.489 20.7831 140.523 20.8212 140.523 20.872C140.523 20.9736 140.383 21.0498 140.104 21.1006C139.791 21.1599 139.6 21.2615 139.533 21.4054C139.465 21.5493 139.431 21.7441 139.431 21.9896V27.73C139.431 28.0433 139.469 28.2676 139.545 28.4031C139.63 28.5386 139.829 28.6359 140.142 28.6952C140.413 28.746 140.549 28.8137 140.549 28.8984C140.549 28.9492 140.515 28.9873 140.447 29.0127C140.379 29.0466 140.29 29.0635 140.18 29.0635C139.952 29.0635 139.774 29.055 139.647 29.0381C139.52 29.0296 139.401 29.0212 139.291 29.0127C139.181 29.0042 139.037 29 138.859 29C138.682 29 138.533 29.0042 138.415 29.0127C138.305 29.0212 138.182 29.0296 138.047 29.0381C137.911 29.055 137.729 29.0635 137.501 29.0635C137.39 29.0635 137.302 29.0466 137.234 29.0127C137.166 28.9873 137.132 28.9492 137.132 28.8984C137.132 28.8391 137.162 28.7968 137.221 28.7714C137.289 28.746 137.395 28.7206 137.539 28.6952C137.81 28.6444 138.021 28.547 138.174 28.4031C138.334 28.2507 138.415 28.039 138.415 27.7681V25.2916C138.415 25.2493 138.415 25.2069 138.415 25.1646C138.415 25.1223 138.394 25.1011 138.351 25.1011H133.5C133.458 25.1011 133.437 25.1477 133.437 25.2408V27.6538C133.437 27.9163 133.534 28.1449 133.729 28.3396C133.923 28.5259 134.165 28.6444 134.453 28.6952C134.596 28.7206 134.698 28.746 134.757 28.7714C134.825 28.7968 134.859 28.8391 134.859 28.8984C134.859 28.9492 134.825 28.9873 134.757 29.0127C134.69 29.0466 134.601 29.0635 134.491 29.0635C134.262 29.0635 134.072 29.055 133.919 29.0381C133.775 29.0296 133.635 29.0212 133.5 29.0127C133.365 29.0042 133.199 29 133.005 29C132.827 29 132.675 29.0042 132.548 29.0127C132.429 29.0212 132.298 29.0296 132.154 29.0381C132.018 29.055 131.836 29.0635 131.608 29.0635ZM141.889 29.0635C141.779 29.0635 141.69 29.0466 141.623 29.0127C141.555 28.9873 141.521 28.9492 141.521 28.8984C141.521 28.8137 141.656 28.746 141.927 28.6952C142.249 28.6359 142.457 28.5386 142.55 28.4031C142.651 28.2676 142.702 28.0475 142.702 27.7427V22.0023C142.702 21.706 142.668 21.4985 142.6 21.38C142.541 21.253 142.351 21.1599 142.029 21.1006C141.75 21.0498 141.61 20.9736 141.61 20.872C141.61 20.8212 141.639 20.7831 141.699 20.7577C141.758 20.7238 141.851 20.7069 141.978 20.7069C142.207 20.7069 142.385 20.7111 142.512 20.7196C142.639 20.7281 142.757 20.7365 142.867 20.745C142.977 20.745 143.117 20.745 143.286 20.745C143.464 20.745 143.608 20.745 143.718 20.745C143.837 20.7365 143.959 20.7281 144.086 20.7196C144.222 20.7111 144.404 20.7069 144.632 20.7069C144.878 20.7069 145.001 20.7619 145.001 20.872C145.001 20.9313 144.967 20.9778 144.899 21.0117C144.831 21.0456 144.726 21.0752 144.582 21.1006C144.268 21.1599 144.044 21.2657 143.909 21.4181C143.782 21.562 143.718 21.7568 143.718 22.0023V24.5042C143.718 24.555 143.739 24.5889 143.782 24.6058C143.824 24.6143 143.862 24.6185 143.896 24.6185H148.608C148.667 24.6185 148.696 24.5677 148.696 24.4661V21.9896C148.696 21.761 148.637 21.5705 148.519 21.4181C148.4 21.2657 148.18 21.1599 147.858 21.1006C147.714 21.0752 147.608 21.0456 147.541 21.0117C147.473 20.9778 147.439 20.9313 147.439 20.872C147.439 20.7619 147.562 20.7069 147.807 20.7069C148.036 20.7069 148.222 20.7111 148.366 20.7196C148.519 20.7281 148.663 20.7365 148.798 20.745C148.934 20.745 149.094 20.745 149.281 20.745C149.433 20.745 149.552 20.745 149.636 20.745C149.721 20.7365 149.818 20.7281 149.928 20.7196C150.038 20.7111 150.208 20.7069 150.436 20.7069C150.555 20.7069 150.644 20.7238 150.703 20.7577C150.771 20.7831 150.805 20.8212 150.805 20.872C150.805 20.9736 150.665 21.0498 150.386 21.1006C150.072 21.1599 149.882 21.2615 149.814 21.4054C149.746 21.5493 149.712 21.7441 149.712 21.9896V27.73C149.712 28.0433 149.751 28.2676 149.827 28.4031C149.911 28.5386 150.11 28.6359 150.424 28.6952C150.695 28.746 150.83 28.8137 150.83 28.8984C150.83 28.9492 150.796 28.9873 150.728 29.0127C150.661 29.0466 150.572 29.0635 150.462 29.0635C150.233 29.0635 150.055 29.055 149.928 29.0381C149.801 29.0296 149.683 29.0212 149.573 29.0127C149.463 29.0042 149.319 29 149.141 29C148.963 29 148.815 29.0042 148.696 29.0127C148.586 29.0212 148.464 29.0296 148.328 29.0381C148.193 29.055 148.011 29.0635 147.782 29.0635C147.672 29.0635 147.583 29.0466 147.515 29.0127C147.448 28.9873 147.414 28.9492 147.414 28.8984C147.414 28.8391 147.443 28.7968 147.503 28.7714C147.57 28.746 147.676 28.7206 147.82 28.6952C148.091 28.6444 148.303 28.547 148.455 28.4031C148.616 28.2507 148.696 28.039 148.696 27.7681V25.2916C148.696 25.2493 148.696 25.2069 148.696 25.1646C148.696 25.1223 148.675 25.1011 148.633 25.1011H143.782C143.739 25.1011 143.718 25.1477 143.718 25.2408V27.6538C143.718 27.9163 143.815 28.1449 144.01 28.3396C144.205 28.5259 144.446 28.6444 144.734 28.6952C144.878 28.7206 144.98 28.746 145.039 28.7714C145.107 28.7968 145.14 28.8391 145.14 28.8984C145.14 28.9492 145.107 28.9873 145.039 29.0127C144.971 29.0466 144.882 29.0635 144.772 29.0635C144.544 29.0635 144.353 29.055 144.201 29.0381C144.057 29.0296 143.917 29.0212 143.782 29.0127C143.646 29.0042 143.481 29 143.286 29C143.108 29 142.956 29.0042 142.829 29.0127C142.711 29.0212 142.579 29.0296 142.435 29.0381C142.3 29.055 142.118 29.0635 141.889 29.0635ZM152.095 29.2032C151.891 29.2032 151.722 29.1905 151.587 29.1651C151.46 29.1397 151.354 29.0974 151.269 29.0381C151.244 29.0212 151.223 29 151.206 28.9746C151.189 28.9407 151.18 28.9069 151.18 28.873C151.18 28.8307 151.193 28.7968 151.218 28.7714C151.244 28.7375 151.273 28.7206 151.307 28.7206C151.493 28.7206 151.692 28.6613 151.904 28.5428C152.124 28.4158 152.349 28.2253 152.577 27.9713C152.806 27.7173 153.039 27.3956 153.276 27.0061C153.53 26.5743 153.818 26.1891 154.139 25.8504C154.469 25.5033 154.804 25.2916 155.143 25.2154C155.176 25.2069 155.185 25.1942 155.168 25.1773C155.16 25.1604 155.117 25.1477 155.041 25.1392C154.66 25.1053 154.321 24.9783 154.025 24.7582C153.737 24.5381 153.513 24.2714 153.352 23.9581C153.191 23.6448 153.111 23.3358 153.111 23.031C153.111 22.4468 153.255 21.9811 153.542 21.634C153.83 21.2869 154.215 21.0371 154.698 20.8847C155.181 20.7323 155.71 20.6561 156.286 20.6561C156.472 20.6561 156.637 20.6646 156.781 20.6815C156.933 20.69 157.081 20.7027 157.225 20.7196C157.369 20.7365 157.526 20.745 157.695 20.745C157.882 20.745 158.034 20.745 158.152 20.745C158.271 20.7365 158.398 20.7281 158.533 20.7196C158.669 20.7111 158.851 20.7069 159.08 20.7069C159.19 20.7069 159.279 20.7196 159.346 20.745C159.414 20.7619 159.448 20.7958 159.448 20.8466C159.448 20.9651 159.308 21.0498 159.029 21.1006C158.716 21.1599 158.487 21.253 158.343 21.38C158.199 21.507 158.127 21.7187 158.127 22.015V27.7554C158.127 28.0517 158.216 28.2676 158.394 28.4031C158.572 28.5386 158.817 28.6359 159.13 28.6952C159.41 28.746 159.549 28.8222 159.549 28.9238C159.549 28.9746 159.516 29.0085 159.448 29.0254C159.38 29.0508 159.291 29.0635 159.181 29.0635C158.953 29.0635 158.762 29.055 158.61 29.0381C158.466 29.0296 158.326 29.0212 158.191 29.0127C158.055 29.0042 157.89 29 157.695 29C157.484 29 157.297 29.0042 157.136 29.0127C156.984 29.0212 156.823 29.0296 156.654 29.0381C156.493 29.055 156.298 29.0635 156.07 29.0635C155.96 29.0635 155.871 29.0508 155.803 29.0254C155.735 29.0085 155.701 28.9746 155.701 28.9238C155.701 28.8645 155.735 28.818 155.803 28.7841C155.871 28.7502 155.977 28.7206 156.12 28.6952C156.332 28.6529 156.51 28.5936 156.654 28.5174C156.806 28.4412 156.921 28.3396 156.997 28.2126C157.073 28.0856 157.111 27.9332 157.111 27.7554V25.6091C157.111 25.3974 157.077 25.2789 157.009 25.2535C156.95 25.2281 156.815 25.2154 156.603 25.2154C156.485 25.2154 156.362 25.2535 156.235 25.3297C156.116 25.4059 155.985 25.4821 155.841 25.5583C155.528 25.7192 155.236 25.9986 154.965 26.3965C154.694 26.7944 154.419 27.1966 154.139 27.603C153.953 27.8824 153.754 28.1449 153.542 28.3904C153.339 28.6275 153.119 28.8222 152.882 28.9746C152.645 29.127 152.382 29.2032 152.095 29.2032ZM156.159 24.7709C156.446 24.7709 156.675 24.7455 156.844 24.6947C157.022 24.6354 157.111 24.4957 157.111 24.2756V22.015C157.111 21.6763 157.014 21.4308 156.819 21.2784C156.633 21.126 156.396 21.0498 156.108 21.0498C155.778 21.0498 155.464 21.126 155.168 21.2784C154.88 21.4308 154.647 21.6382 154.469 21.9007C154.292 22.1547 154.203 22.451 154.203 22.7897C154.203 23.484 154.368 23.9877 154.698 24.301C155.037 24.6143 155.524 24.7709 156.159 24.7709Z" fill="#FFE6D5"/>
<defs>
<filter id="filter0_f_121_4" x="0.751834" y="0.751834" width="173.994" height="74.7865" filterUnits="userSpaceOnUse" color-interpolation-filters="sRGB">
<feFlood flood-opacity="0" result="BackgroundImageFix"/>
<feBlend mode="normal" in="SourceGraphic" in2="BackgroundImageFix" result="shape"/>
<feGaussianBlur stdDeviation="0.917845" result="effect1_foregroundBlur_121_4"/>
</filter>
<linearGradient id="paint0_linear_121_4" x1="1.0554" y1="34.798" x2="170.945" y2="37.28" gradientUnits="userSpaceOnUse">
<stop stop-color="#803300"/>
<stop offset="0.504494" stop-color="#CF5300" stop-opacity="0.494118"/>
<stop offset="1" stop-color="#803300"/>
</linearGradient>
</defs>
</svg>
